<svg width="36" height="36" viewBox="0 0 36 36" fill="none" xmlns="http://www.w3.org/2000/svg">
<path d="M32.3306 6.00077C32.1943 5.98672 32.0569 5.98672 31.9206 6.00077H3.92062C3.74117 6.00353 3.5629 6.03044 3.39062 6.08077L17.8406 20.4708L32.3306 6.00077Z" fill="white"/>
<path d="M33.8097 7.39062L19.2497 21.8906C18.875 22.2631 18.3681 22.4722 17.8397 22.4722C17.3113 22.4722 16.8044 22.2631 16.4297 21.8906L1.99969 7.50063C1.95533 7.66367 1.93181 7.83167 1.92969 8.00063V28.0006C1.92969 28.5311 2.1404 29.0398 2.51547 29.4148C2.89055 29.7899 3.39925 30.0006 3.92969 30.0006H31.9297C32.4601 30.0006 32.9688 29.7899 33.3439 29.4148C33.719 29.0398 33.9297 28.5311 33.9297 28.0006V8.00063C33.9217 7.79228 33.8812 7.58646 33.8097 7.39062V7.39062ZM5.29969 28.0006H3.90969V26.5706L11.1797 19.3606L12.5897 20.7706L5.29969 28.0006ZM31.9097 28.0006H30.5097L23.2197 20.7706L24.6297 19.3606L31.8997 26.5706L31.9097 28.0006Z" fill="white"/>
</svg>
