<svg width="208" height="48" viewBox="0 0 208 48" fill="none" xmlns="http://www.w3.org/2000/svg">
<g clip-path="url(#clip0_947_240)">
<path d="M178.012 33.0567L178.26 32.7096L189.985 10.4558L190.01 10.2202L184.841 0.509037C184.408 -0.304422 183.189 -0.098721 183.047 0.811923L178.012 33.0567Z" fill="#FFC24A"/>
<path d="M193.778 17.5658L197.626 13.6235L193.777 6.27266C193.411 5.57683 192.391 5.57473 192.03 6.27266L189.973 10.1959V10.53L193.778 17.5658H193.778Z" fill="#F4BD62"/>
<path d="M178.014 33.0569L178.126 32.9438L178.534 32.7779L193.538 17.8264L193.728 17.3088L189.985 10.1748L178.014 33.0569Z" fill="#F6820C"/>
<path d="M194.26 40.5964L207.839 33.0217L203.961 9.13483C203.84 8.38748 202.923 8.09207 202.389 8.62788L178.014 33.0561L191.514 40.5958C191.934 40.8302 192.407 40.9533 192.887 40.9534C193.368 40.9535 193.841 40.8306 194.26 40.5964" fill="#FDE068"/>
<path d="M207.717 32.9585L203.869 9.25307C203.749 8.51133 202.986 8.20447 202.455 8.7363L178.164 33.0099L191.517 40.475C191.933 40.7076 192.402 40.8297 192.879 40.8298C193.356 40.83 193.825 40.708 194.242 40.4757L207.717 32.9584L207.717 32.9585Z" fill="#FCCA3F"/>
<path d="M194.26 40.3745C193.84 40.6087 193.368 40.7315 192.887 40.7314C192.407 40.7313 191.934 40.6083 191.514 40.3739L178.122 32.9425L178.014 33.0573L191.514 40.5971C191.934 40.8315 192.407 40.9546 192.887 40.9547C193.368 40.9548 193.84 40.8319 194.26 40.5977L207.839 33.023L207.806 32.8184L194.26 40.3746L194.26 40.3745Z" fill="#EEAB37"/>
</g>
<g clip-path="url(#clip1_947_240)">
<path d="M41.5803 14.7558C40.059 14.7558 38.9261 15.519 38.9261 17.3557C38.9261 18.7395 39.6728 19.7003 41.4982 19.7003C43.0455 19.7003 44.0966 18.7686 44.0966 17.2982C44.0966 15.632 43.1562 14.7558 41.5803 14.7558V14.7558ZM38.5388 27.7248C38.1787 28.1761 37.8199 28.6559 37.8199 29.2216C37.8199 30.351 39.2294 30.6909 41.1658 30.6909C42.7694 30.6909 44.9541 30.576 44.9541 29.0525C44.9541 28.1469 43.9031 28.0911 42.575 28.0061L38.5388 27.7248V27.7248ZM46.7235 14.8411C47.2204 15.4909 47.7466 16.3954 47.7466 17.6948C47.7466 20.8306 45.3409 22.6667 41.8575 22.6667C40.9717 22.6667 40.1699 22.554 39.6728 22.4129L38.7598 23.9097L41.4694 24.0791C46.2536 24.3907 49.073 24.5323 49.073 28.2883C49.073 31.5379 46.2811 33.3733 41.4694 33.3733C36.4647 33.3733 34.5566 32.0736 34.5566 29.842C34.5566 28.5707 35.1098 27.8939 36.0776 26.96C35.1649 26.566 34.8611 25.86 34.8611 25.0966C34.8611 24.4746 35.1649 23.91 35.6634 23.3727C36.1608 22.8367 36.7137 22.2993 37.3774 21.6778C36.0227 20.9997 34.9991 19.5306 34.9991 17.4395C34.9991 14.1913 37.101 11.9602 41.3307 11.9602C42.5201 11.9602 43.2393 12.0718 43.8753 12.2426H49.2679V14.6431L46.7235 14.8411V14.8411ZM54.1326 9.7072C52.5561 9.7072 51.6437 8.77412 51.6437 7.16317C51.6437 5.55444 52.5559 4.67773 54.1326 4.67773C55.7362 4.67773 56.6489 5.55444 56.6489 7.16317C56.6489 8.77412 55.7365 9.7072 54.1326 9.7072ZM50.5649 26.6851V24.4543L51.9756 24.2571C52.3629 24.2002 52.4178 24.1158 52.4178 23.6912V15.3851C52.4178 15.0752 52.3352 14.8764 52.0576 14.7925L50.5649 14.2551L50.8688 11.9674H56.5932V23.6912C56.5932 24.1438 56.6198 24.2002 57.036 24.2574L58.4461 24.4546V26.6851H50.5649V26.6851ZM69.3809 25.5898C68.1915 26.1827 66.4495 26.7195 64.8728 26.7195C61.5824 26.7195 60.3386 25.3649 60.3386 22.1708V14.7697C60.3386 14.6003 60.3386 14.4873 60.1165 14.4873H58.1813V11.9721C60.6153 11.6889 61.5824 10.4459 61.8865 7.36645H64.5137V11.3792C64.5137 11.5764 64.5137 11.6617 64.7353 11.6617H68.6337V14.4867H64.5137V21.2385C64.5137 22.9053 64.9013 23.5545 66.3938 23.5545C67.169 23.5545 67.97 23.3574 68.6334 23.103L69.3809 25.5895" fill="#2F2707"/>
<path d="M28.4109 18.1751L15.7678 5.25838C15.5947 5.08141 15.3891 4.94104 15.1628 4.84526C14.9366 4.74949 14.6941 4.7002 14.4492 4.7002C14.2042 4.7002 13.9617 4.74949 13.7355 4.84526C13.5092 4.94104 13.3037 5.08141 13.1305 5.25838L10.5052 7.94098L13.8356 11.3434C14.227 11.2074 14.648 11.1861 15.0507 11.2819C15.4534 11.3778 15.8217 11.587 16.1141 11.8857C16.408 12.1864 16.6132 12.5655 16.7062 12.9796C16.7993 13.3938 16.7764 13.8264 16.6403 14.2279L19.8494 17.5073C20.626 17.234 21.5221 17.4109 22.1421 18.0455C22.3482 18.2559 22.5117 18.5058 22.6233 18.7809C22.7348 19.0559 22.7923 19.3508 22.7923 19.6485C22.7923 19.9462 22.7348 20.2411 22.6233 20.5161C22.5117 20.7912 22.3482 21.0411 22.1421 21.2515C21.7794 21.6224 21.3022 21.8534 20.7916 21.9052C20.281 21.957 19.7686 21.8265 19.3417 21.5357C18.9147 21.245 18.5995 20.8121 18.4498 20.3106C18.3001 19.8092 18.3251 19.2703 18.5206 18.7855L15.5275 15.7275L15.5273 23.7753C15.7442 23.8849 15.9424 24.0297 16.1141 24.2041C16.3202 24.4146 16.4837 24.6645 16.5952 24.9396C16.7068 25.2147 16.7642 25.5096 16.7642 25.8074C16.7642 26.1052 16.7068 26.4 16.5952 26.6751C16.4837 26.9502 16.3202 27.2002 16.1141 27.4107C15.247 28.2966 13.8418 28.2966 12.9761 27.4107C12.7175 27.1466 12.5267 26.8214 12.4208 26.4639C12.3149 26.1063 12.2971 25.7276 12.3689 25.3613C12.4408 24.9951 12.6001 24.6526 12.8328 24.3644C13.0654 24.0762 13.3641 23.8513 13.7024 23.7095V15.5867C13.4303 15.4731 13.1833 15.3049 12.9761 15.0918C12.3195 14.4217 12.1615 13.4373 12.498 12.6133L9.21522 9.25868L0.546389 18.1152C0.373163 18.2921 0.235752 18.5022 0.142002 18.7335C0.0482525 18.9647 0 19.2126 0 19.4629C0 19.7131 0.0482525 19.961 0.142002 20.1922C0.235752 20.4235 0.373163 20.6336 0.546389 20.8105L13.1895 33.7276C13.5393 34.0848 14.0136 34.2855 14.5081 34.2855C15.0027 34.2855 15.477 34.0848 15.8268 33.7276L28.4109 20.8708C28.7606 20.5133 28.9571 20.0285 28.9571 19.523C28.9571 19.0175 28.7606 18.5327 28.4109 18.1751" fill="#DE4C36"/>
</g>
<g clip-path="url(#clip2_947_240)">
<path d="M104.648 21.8847C104.648 22.721 104.739 23.399 104.897 23.8962C105.098 24.4555 105.34 24.9994 105.622 25.5232C105.735 25.7039 105.78 25.8847 105.78 26.0431C105.78 26.2689 105.644 26.4949 105.35 26.721L103.924 27.6701C103.72 27.8058 103.516 27.8735 103.335 27.8735C103.108 27.8735 102.882 27.7605 102.655 27.557C102.35 27.2298 102.077 26.8742 101.84 26.4949C101.614 26.111 101.387 25.6813 101.138 25.1617C99.3722 27.2406 97.153 28.2803 94.4814 28.2803C92.5795 28.2803 91.0623 27.7378 89.9527 26.6533C88.8434 25.5683 88.2773 24.122 88.2773 22.3142C88.2773 20.3934 88.9566 18.8341 90.3379 17.6589C91.7189 16.4838 93.5531 15.8962 95.8853 15.8962C96.6551 15.8962 97.4477 15.9639 98.2853 16.077C99.1233 16.19 99.9837 16.3708 100.889 16.5742V14.9245C100.889 13.2068 100.527 12.0093 99.825 11.3087C99.1006 10.6081 97.8777 10.2689 96.1343 10.2689C95.3417 10.2689 94.5268 10.3596 93.6888 10.563C92.8512 10.7661 92.0359 11.0149 91.2434 11.3313C90.8812 11.4894 90.6095 11.5798 90.4509 11.6251C90.2925 11.6704 90.1792 11.6928 90.0886 11.6928C89.7716 11.6928 89.6132 11.4668 89.6132 10.9922V9.88478C89.6132 9.52328 89.6586 9.25215 89.7716 9.09406C89.8848 8.93571 90.0887 8.77761 90.4057 8.61952C91.1982 8.2127 92.1492 7.87359 93.2585 7.60247C94.3684 7.30868 95.5458 7.17325 96.7911 7.17325C99.4858 7.17325 101.456 7.78322 102.724 9.00369C103.969 10.2239 104.603 12.077 104.603 14.563V21.8847H104.649H104.648ZM95.455 25.3198C96.2024 25.3198 96.9722 25.1844 97.7872 24.913C98.6024 24.6418 99.3271 24.1446 99.9382 23.4667C100.301 23.0375 100.572 22.5629 100.708 22.0204C100.844 21.4782 100.935 20.8226 100.935 20.0543V19.1052C100.248 18.9384 99.5524 18.8101 98.8514 18.721C98.1454 18.6316 97.4346 18.5862 96.723 18.5854C95.2058 18.5854 94.0964 18.8791 93.3493 19.4894C92.6019 20.0996 92.2397 20.9583 92.2397 22.0881C92.2397 23.1502 92.5114 23.9412 93.0774 24.4837C93.621 25.0487 94.4135 25.3198 95.455 25.3198ZM113.637 27.7605C113.23 27.7605 112.958 27.6927 112.777 27.5344C112.596 27.399 112.437 27.0825 112.301 26.6533L106.98 9.18444C106.844 8.73229 106.776 8.43851 106.776 8.28042C106.776 7.91891 106.957 7.71524 107.32 7.71524H109.539C109.969 7.71524 110.264 7.78322 110.422 7.94131C110.603 8.07701 110.739 8.39345 110.875 8.82267L114.679 23.7831L118.211 8.82267C118.324 8.37079 118.46 8.07701 118.641 7.94131C118.822 7.80588 119.14 7.7155 119.547 7.7155H121.358C121.789 7.7155 122.083 7.78322 122.264 7.94131C122.445 8.07701 122.604 8.39345 122.694 8.82267L126.272 23.9639L130.189 8.82267C130.325 8.37079 130.483 8.07701 130.642 7.94131C130.823 7.80588 131.117 7.7155 131.525 7.7155H133.631C133.993 7.7155 134.197 7.89625 134.197 8.28042C134.197 8.39345 134.174 8.50649 134.151 8.64192C134.129 8.77761 134.084 8.95837 133.993 9.2071L128.536 26.6757C128.4 27.1278 128.242 27.4216 128.06 27.557C127.879 27.6927 127.585 27.7831 127.2 27.7831H125.253C124.823 27.7831 124.528 27.7154 124.347 27.557C124.166 27.399 124.007 27.1052 123.917 26.6533L120.407 12.077L116.92 26.6304C116.807 27.0825 116.671 27.3763 116.49 27.5344C116.309 27.6927 115.992 27.7605 115.584 27.7605H113.637H113.637ZM142.733 28.3707C141.556 28.3707 140.378 28.235 139.246 27.9639C138.114 27.6927 137.231 27.3987 136.643 27.0601C136.28 26.8564 136.031 26.6306 135.941 26.4272C135.852 26.2277 135.806 26.0123 135.805 25.7943V24.6418C135.805 24.1673 135.986 23.9412 136.325 23.9412C136.464 23.9417 136.602 23.9647 136.733 24.0092C136.869 24.0545 137.073 24.1446 137.299 24.235C138.099 24.5861 138.934 24.8513 139.79 25.026C140.677 25.2056 141.579 25.2965 142.484 25.2971C143.911 25.2971 145.02 25.0487 145.79 24.5515C146.56 24.0543 146.968 23.3313 146.968 22.4046C146.968 21.772 146.764 21.2521 146.356 20.8226C145.949 20.3934 145.179 20.0092 144.069 19.6475L140.786 18.6307C139.133 18.1108 137.911 17.3425 137.163 16.3254C136.416 15.331 136.031 14.2239 136.031 13.0487C136.031 12.0996 136.235 11.2633 136.643 10.5401C137.05 9.81707 137.593 9.18444 138.273 8.68724C138.952 8.16738 139.722 7.78322 140.628 7.51209C141.533 7.24097 142.484 7.12793 143.48 7.12793C143.979 7.12793 144.499 7.15059 144.998 7.21831C145.518 7.28602 145.994 7.3764 146.469 7.46677C146.922 7.57981 147.352 7.69284 147.76 7.82854C148.168 7.96397 148.485 8.09967 148.711 8.2351C149.028 8.41611 149.254 8.59686 149.39 8.80028C149.526 8.98103 149.594 9.22949 149.594 9.54594V10.6081C149.594 11.0826 149.413 11.3313 149.073 11.3313C148.892 11.3313 148.598 11.2407 148.213 11.0599C146.922 10.4724 145.473 10.1786 143.866 10.1786C142.575 10.1786 141.556 10.382 140.854 10.8115C140.152 11.2407 139.79 11.8962 139.79 12.8226C139.79 13.4555 140.016 13.9978 140.469 14.4273C140.922 14.8565 141.76 15.286 142.96 15.6701L146.175 16.6872C147.805 17.2071 148.983 17.9301 149.685 18.8565C150.387 19.7832 150.726 20.8453 150.726 22.0204C150.726 22.9922 150.522 23.8735 150.137 24.6418C149.73 25.4102 149.186 26.0881 148.485 26.6306C147.783 27.1955 146.945 27.6024 145.971 27.8962C144.952 28.2126 143.888 28.3707 142.733 28.3707V28.3707Z" fill="#252F3E"/>
<path d="M147.011 39.3533C139.562 44.8449 128.738 47.7601 119.432 47.7601C106.39 47.7601 94.6386 42.9465 85.7626 34.9465C85.0606 34.3139 85.6945 33.4552 86.5322 33.9521C96.1328 39.5117 107.975 42.8787 120.225 42.8787C128.49 42.8787 137.569 41.1613 145.925 37.6359C147.17 37.0707 148.234 38.4495 147.011 39.3533V39.3533ZM150.114 35.8279C149.163 34.6077 143.819 35.2403 141.396 35.5341C140.671 35.6247 140.558 34.9918 141.215 34.5173C145.472 31.5341 152.468 32.3931 153.283 33.3872C154.099 34.4042 153.057 41.3871 149.072 44.7318C148.461 45.2517 147.872 44.9806 148.144 44.3026C149.049 42.0651 151.064 37.0257 150.114 35.8279V35.8279Z" fill="#FF9900"/>
</g>
<defs>
<clipPath id="clip0_947_240">
<rect width="29.8958" height="41" fill="white" transform="translate(178.012)"/>
</clipPath>
<clipPath id="clip1_947_240">
<rect width="69.5811" height="29.9918" fill="white" transform="translate(0 4.41992)"/>
</clipPath>
<clipPath id="clip2_947_240">
<rect width="68.3814" height="40.7889" fill="white" transform="translate(85.3105 7.10645)"/>
</clipPath>
</defs>
</svg>
