<svg width="338" height="133" viewBox="0 0 338 133" fill="none" xmlns="http://www.w3.org/2000/svg">
<path d="M108.444 122.961L111.455 112.377H112.913L112.069 116.492L108.829 127.545H107.381L108.444 122.961ZM105.329 112.377L107.725 122.753L108.444 127.545H107.006L103.329 112.377H105.329ZM116.81 122.742L119.154 112.377H121.164L117.497 127.545H116.059L116.81 122.742ZM113.132 112.377L116.059 122.961L117.122 127.545H115.674L112.549 116.492L111.694 112.377H113.132ZM127.446 127.753C126.661 127.753 125.949 127.621 125.31 127.357C124.678 127.087 124.133 126.708 123.675 126.222C123.223 125.736 122.876 125.159 122.633 124.493C122.39 123.826 122.268 123.097 122.268 122.305V121.867C122.268 120.95 122.404 120.134 122.675 119.419C122.946 118.697 123.314 118.086 123.779 117.585C124.244 117.085 124.772 116.707 125.363 116.45C125.953 116.193 126.564 116.064 127.196 116.064C128.002 116.064 128.696 116.203 129.28 116.481C129.87 116.759 130.353 117.148 130.728 117.648C131.103 118.141 131.381 118.725 131.561 119.398C131.742 120.065 131.832 120.794 131.832 121.586V122.451H123.414V120.878H129.905V120.732C129.877 120.232 129.773 119.745 129.592 119.273C129.419 118.801 129.141 118.412 128.759 118.106C128.377 117.801 127.856 117.648 127.196 117.648C126.759 117.648 126.356 117.742 125.988 117.929C125.62 118.11 125.303 118.381 125.04 118.742C124.776 119.103 124.571 119.544 124.425 120.065C124.279 120.586 124.206 121.187 124.206 121.867V122.305C124.206 122.84 124.279 123.343 124.425 123.815C124.578 124.281 124.796 124.69 125.081 125.045C125.373 125.399 125.724 125.677 126.133 125.878C126.55 126.079 127.022 126.18 127.55 126.18C128.231 126.18 128.807 126.041 129.28 125.763C129.752 125.486 130.165 125.114 130.519 124.649L131.686 125.576C131.443 125.944 131.134 126.295 130.759 126.628C130.384 126.962 129.922 127.232 129.373 127.441C128.832 127.649 128.189 127.753 127.446 127.753ZM134.072 111.543H136.01V125.357L135.843 127.545H134.072V111.543ZM143.625 121.815V122.034C143.625 122.853 143.528 123.614 143.333 124.315C143.139 125.01 142.854 125.614 142.479 126.128C142.104 126.642 141.646 127.041 141.104 127.326C140.562 127.611 139.941 127.753 139.239 127.753C138.524 127.753 137.895 127.632 137.353 127.389C136.819 127.139 136.367 126.781 135.999 126.316C135.631 125.85 135.336 125.288 135.114 124.628C134.898 123.968 134.749 123.225 134.666 122.399V121.44C134.749 120.607 134.898 119.86 135.114 119.2C135.336 118.54 135.631 117.978 135.999 117.513C136.367 117.04 136.819 116.683 137.353 116.44C137.888 116.19 138.51 116.064 139.218 116.064C139.927 116.064 140.555 116.203 141.104 116.481C141.653 116.752 142.111 117.141 142.479 117.648C142.854 118.155 143.139 118.763 143.333 119.471C143.528 120.173 143.625 120.954 143.625 121.815ZM141.687 122.034V121.815C141.687 121.253 141.635 120.725 141.531 120.232C141.427 119.732 141.26 119.294 141.031 118.919C140.802 118.537 140.5 118.238 140.125 118.023C139.75 117.801 139.288 117.69 138.739 117.69C138.253 117.69 137.829 117.773 137.468 117.94C137.114 118.106 136.812 118.332 136.562 118.617C136.312 118.895 136.107 119.214 135.947 119.575C135.794 119.929 135.68 120.298 135.603 120.68V123.19C135.714 123.676 135.895 124.145 136.145 124.597C136.402 125.041 136.742 125.406 137.166 125.691C137.597 125.975 138.128 126.118 138.76 126.118C139.281 126.118 139.725 126.014 140.093 125.805C140.468 125.59 140.77 125.295 141 124.92C141.236 124.545 141.409 124.111 141.521 123.617C141.632 123.124 141.687 122.596 141.687 122.034ZM154.157 119.127L156.428 117.513C156.866 117.214 157.203 116.915 157.439 116.617C157.682 116.311 157.804 115.894 157.804 115.366C157.804 114.957 157.644 114.585 157.324 114.252C157.005 113.911 156.553 113.741 155.97 113.741C155.567 113.741 155.227 113.835 154.949 114.023C154.671 114.21 154.463 114.46 154.324 114.773C154.185 115.078 154.116 115.415 154.116 115.783C154.116 116.096 154.192 116.419 154.345 116.752C154.498 117.085 154.71 117.433 154.98 117.794C155.251 118.155 155.56 118.537 155.908 118.94L163.085 127.545H160.773L154.887 120.502C154.366 119.891 153.9 119.332 153.491 118.825C153.081 118.311 152.758 117.815 152.522 117.335C152.293 116.856 152.178 116.36 152.178 115.846C152.178 115.054 152.334 114.387 152.647 113.845C152.966 113.297 153.411 112.88 153.98 112.595C154.55 112.311 155.217 112.168 155.981 112.168C156.724 112.168 157.363 112.318 157.897 112.616C158.439 112.908 158.856 113.297 159.148 113.783C159.439 114.262 159.585 114.79 159.585 115.366C159.585 115.853 159.498 116.29 159.325 116.679C159.151 117.061 158.908 117.412 158.595 117.731C158.29 118.051 157.932 118.363 157.522 118.669L154.512 120.909C154.012 121.277 153.647 121.628 153.418 121.961C153.189 122.294 153.039 122.59 152.97 122.846C152.907 123.103 152.876 123.308 152.876 123.461C152.876 123.954 152.984 124.406 153.199 124.815C153.414 125.225 153.741 125.555 154.178 125.805C154.623 126.048 155.178 126.17 155.845 126.17C156.428 126.17 156.995 126.038 157.543 125.774C158.099 125.503 158.595 125.121 159.033 124.628C159.47 124.128 159.818 123.534 160.075 122.846C160.339 122.152 160.471 121.385 160.471 120.544H162.2C162.2 121.232 162.134 121.881 162.002 122.492C161.87 123.103 161.665 123.673 161.387 124.201C161.116 124.722 160.769 125.197 160.346 125.628C160.283 125.691 160.234 125.763 160.2 125.847C160.165 125.93 160.116 126.003 160.054 126.066C159.533 126.628 158.891 127.052 158.127 127.337C157.37 127.614 156.609 127.753 155.845 127.753C154.838 127.753 153.966 127.569 153.23 127.201C152.501 126.833 151.938 126.326 151.543 125.68C151.147 125.034 150.949 124.295 150.949 123.461C150.949 122.822 151.084 122.26 151.355 121.773C151.633 121.287 152.011 120.832 152.491 120.409C152.977 119.985 153.532 119.558 154.157 119.127ZM175.826 113.72L170.805 127.545H168.753L174.535 112.377H175.858L175.826 113.72ZM180.035 127.545L175.003 113.72L174.972 112.377H176.295L182.098 127.545H180.035ZM179.775 121.93V123.576H171.253V121.93H179.775ZM185.765 118.44V131.879H183.827V116.273H185.598L185.765 118.44ZM193.36 121.815V122.034C193.36 122.853 193.262 123.614 193.068 124.315C192.873 125.01 192.589 125.614 192.214 126.128C191.846 126.642 191.391 127.041 190.849 127.326C190.307 127.611 189.686 127.753 188.984 127.753C188.269 127.753 187.637 127.635 187.088 127.399C186.539 127.163 186.074 126.819 185.692 126.368C185.31 125.916 185.005 125.375 184.775 124.743C184.553 124.111 184.4 123.399 184.317 122.607V121.44C184.4 120.607 184.557 119.86 184.786 119.2C185.015 118.54 185.317 117.978 185.692 117.513C186.074 117.04 186.536 116.683 187.078 116.44C187.619 116.19 188.244 116.064 188.953 116.064C189.661 116.064 190.29 116.203 190.839 116.481C191.387 116.752 191.849 117.141 192.224 117.648C192.599 118.155 192.88 118.763 193.068 119.471C193.262 120.173 193.36 120.954 193.36 121.815ZM191.422 122.034V121.815C191.422 121.253 191.363 120.725 191.245 120.232C191.127 119.732 190.943 119.294 190.693 118.919C190.45 118.537 190.137 118.238 189.755 118.023C189.373 117.801 188.918 117.69 188.39 117.69C187.904 117.69 187.481 117.773 187.119 117.94C186.765 118.106 186.463 118.332 186.213 118.617C185.963 118.895 185.758 119.214 185.598 119.575C185.446 119.929 185.331 120.298 185.255 120.68V123.378C185.393 123.864 185.588 124.322 185.838 124.753C186.088 125.177 186.421 125.52 186.838 125.784C187.255 126.041 187.779 126.17 188.411 126.17C188.932 126.17 189.38 126.062 189.755 125.847C190.137 125.625 190.45 125.322 190.693 124.94C190.943 124.558 191.127 124.121 191.245 123.628C191.363 123.128 191.422 122.596 191.422 122.034ZM197.746 118.44V131.879H195.808V116.273H197.579L197.746 118.44ZM205.34 121.815V122.034C205.34 122.853 205.243 123.614 205.048 124.315C204.854 125.01 204.569 125.614 204.194 126.128C203.826 126.642 203.371 127.041 202.829 127.326C202.288 127.611 201.666 127.753 200.965 127.753C200.249 127.753 199.617 127.635 199.069 127.399C198.52 127.163 198.055 126.819 197.673 126.368C197.291 125.916 196.985 125.375 196.756 124.743C196.534 124.111 196.381 123.399 196.297 122.607V121.44C196.381 120.607 196.537 119.86 196.766 119.2C196.995 118.54 197.298 117.978 197.673 117.513C198.055 117.04 198.516 116.683 199.058 116.44C199.6 116.19 200.225 116.064 200.933 116.064C201.642 116.064 202.27 116.203 202.819 116.481C203.368 116.752 203.83 117.141 204.205 117.648C204.58 118.155 204.861 118.763 205.048 119.471C205.243 120.173 205.34 120.954 205.34 121.815ZM203.402 122.034V121.815C203.402 121.253 203.343 120.725 203.225 120.232C203.107 119.732 202.923 119.294 202.673 118.919C202.43 118.537 202.118 118.238 201.736 118.023C201.354 117.801 200.899 117.69 200.371 117.69C199.885 117.69 199.461 117.773 199.1 117.94C198.746 118.106 198.444 118.332 198.194 118.617C197.943 118.895 197.739 119.214 197.579 119.575C197.426 119.929 197.311 120.298 197.235 120.68V123.378C197.374 123.864 197.568 124.322 197.818 124.753C198.068 125.177 198.402 125.52 198.819 125.784C199.235 126.041 199.76 126.17 200.392 126.17C200.913 126.17 201.361 126.062 201.736 125.847C202.118 125.625 202.43 125.322 202.673 124.94C202.923 124.558 203.107 124.121 203.225 123.628C203.343 123.128 203.402 122.596 203.402 122.034ZM218.571 112.377V127.545H216.591V112.377H218.571ZM223.446 112.377V114.023H211.726V112.377H223.446ZM229.041 127.753C228.256 127.753 227.544 127.621 226.905 127.357C226.273 127.087 225.728 126.708 225.269 126.222C224.818 125.736 224.471 125.159 224.228 124.493C223.985 123.826 223.863 123.097 223.863 122.305V121.867C223.863 120.95 223.998 120.134 224.269 119.419C224.54 118.697 224.908 118.086 225.374 117.585C225.839 117.085 226.367 116.707 226.957 116.45C227.547 116.193 228.159 116.064 228.791 116.064C229.596 116.064 230.291 116.203 230.874 116.481C231.465 116.759 231.947 117.148 232.322 117.648C232.697 118.141 232.975 118.725 233.156 119.398C233.336 120.065 233.427 120.794 233.427 121.586V122.451H225.009V120.878H231.499V120.732C231.471 120.232 231.367 119.745 231.187 119.273C231.013 118.801 230.735 118.412 230.353 118.106C229.971 117.801 229.45 117.648 228.791 117.648C228.353 117.648 227.95 117.742 227.582 117.929C227.214 118.11 226.898 118.381 226.634 118.742C226.37 119.103 226.165 119.544 226.019 120.065C225.874 120.586 225.801 121.187 225.801 121.867V122.305C225.801 122.84 225.874 123.343 226.019 123.815C226.172 124.281 226.391 124.69 226.676 125.045C226.968 125.399 227.318 125.677 227.728 125.878C228.145 126.079 228.617 126.18 229.145 126.18C229.825 126.18 230.402 126.041 230.874 125.763C231.346 125.486 231.76 125.114 232.114 124.649L233.281 125.576C233.038 125.944 232.729 126.295 232.354 126.628C231.978 126.962 231.517 127.232 230.968 127.441C230.426 127.649 229.784 127.753 229.041 127.753ZM240.188 126.17C240.646 126.17 241.07 126.076 241.459 125.888C241.848 125.701 242.167 125.444 242.417 125.118C242.667 124.784 242.81 124.406 242.844 123.982H244.678C244.643 124.649 244.417 125.27 244.001 125.847C243.591 126.416 243.053 126.878 242.386 127.232C241.719 127.58 240.986 127.753 240.188 127.753C239.34 127.753 238.601 127.604 237.969 127.305C237.344 127.007 236.823 126.597 236.406 126.076C235.996 125.555 235.687 124.958 235.479 124.284C235.277 123.604 235.177 122.885 235.177 122.128V121.69C235.177 120.933 235.277 120.218 235.479 119.544C235.687 118.863 235.996 118.263 236.406 117.742C236.823 117.221 237.344 116.811 237.969 116.512C238.601 116.214 239.34 116.064 240.188 116.064C241.07 116.064 241.841 116.245 242.5 116.606C243.16 116.96 243.678 117.447 244.053 118.065C244.435 118.676 244.643 119.37 244.678 120.148H242.844C242.81 119.683 242.678 119.263 242.448 118.888C242.226 118.513 241.921 118.214 241.532 117.992C241.15 117.763 240.702 117.648 240.188 117.648C239.597 117.648 239.101 117.766 238.698 118.002C238.302 118.231 237.986 118.544 237.75 118.94C237.521 119.329 237.354 119.763 237.25 120.242C237.153 120.714 237.104 121.197 237.104 121.69V122.128C237.104 122.621 237.153 123.107 237.25 123.586C237.347 124.065 237.51 124.499 237.74 124.888C237.976 125.277 238.292 125.59 238.688 125.826C239.09 126.055 239.59 126.17 240.188 126.17ZM248.772 111.543V127.545H246.845V111.543H248.772ZM248.314 121.482L247.511 121.45C247.518 120.68 247.633 119.968 247.855 119.315C248.077 118.655 248.39 118.082 248.793 117.596C249.196 117.11 249.675 116.735 250.23 116.471C250.793 116.2 251.415 116.064 252.095 116.064C252.651 116.064 253.151 116.141 253.595 116.294C254.04 116.44 254.418 116.676 254.731 117.002C255.05 117.329 255.294 117.752 255.46 118.273C255.627 118.787 255.71 119.416 255.71 120.159V127.545H253.773V120.138C253.773 119.548 253.686 119.075 253.512 118.721C253.338 118.36 253.085 118.099 252.752 117.94C252.418 117.773 252.008 117.69 251.522 117.69C251.043 117.69 250.606 117.79 250.21 117.992C249.821 118.193 249.484 118.471 249.199 118.825C248.921 119.179 248.703 119.586 248.543 120.044C248.39 120.496 248.314 120.975 248.314 121.482ZM260.523 118.679V127.545H258.596V116.273H260.419L260.523 118.679ZM260.065 121.482L259.263 121.45C259.27 120.68 259.384 119.968 259.607 119.315C259.829 118.655 260.141 118.082 260.544 117.596C260.947 117.11 261.426 116.735 261.982 116.471C262.544 116.2 263.166 116.064 263.847 116.064C264.402 116.064 264.902 116.141 265.347 116.294C265.791 116.44 266.17 116.676 266.482 117.002C266.802 117.329 267.045 117.752 267.212 118.273C267.378 118.787 267.462 119.416 267.462 120.159V127.545H265.524V120.138C265.524 119.548 265.437 119.075 265.263 118.721C265.09 118.36 264.836 118.099 264.503 117.94C264.17 117.773 263.76 117.69 263.274 117.69C262.794 117.69 262.357 117.79 261.961 117.992C261.572 118.193 261.235 118.471 260.95 118.825C260.673 119.179 260.454 119.586 260.294 120.044C260.141 120.496 260.065 120.975 260.065 121.482ZM269.878 122.034V121.794C269.878 120.982 269.997 120.228 270.233 119.534C270.469 118.832 270.809 118.224 271.254 117.711C271.698 117.19 272.236 116.787 272.868 116.502C273.5 116.21 274.209 116.064 274.994 116.064C275.785 116.064 276.497 116.21 277.129 116.502C277.768 116.787 278.31 117.19 278.754 117.711C279.206 118.224 279.55 118.832 279.786 119.534C280.022 120.228 280.14 120.982 280.14 121.794V122.034C280.14 122.846 280.022 123.6 279.786 124.295C279.55 124.989 279.206 125.597 278.754 126.118C278.31 126.632 277.772 127.034 277.14 127.326C276.515 127.611 275.806 127.753 275.014 127.753C274.223 127.753 273.511 127.611 272.879 127.326C272.247 127.034 271.705 126.632 271.254 126.118C270.809 125.597 270.469 124.989 270.233 124.295C269.997 123.6 269.878 122.846 269.878 122.034ZM271.806 121.794V122.034C271.806 122.596 271.872 123.128 272.004 123.628C272.136 124.121 272.334 124.558 272.598 124.94C272.868 125.322 273.205 125.625 273.608 125.847C274.011 126.062 274.48 126.17 275.014 126.17C275.542 126.17 276.004 126.062 276.4 125.847C276.803 125.625 277.136 125.322 277.4 124.94C277.664 124.558 277.862 124.121 277.994 123.628C278.133 123.128 278.202 122.596 278.202 122.034V121.794C278.202 121.239 278.133 120.714 277.994 120.221C277.862 119.721 277.661 119.28 277.39 118.898C277.126 118.509 276.792 118.204 276.39 117.981C275.994 117.759 275.528 117.648 274.994 117.648C274.466 117.648 274 117.759 273.598 117.981C273.202 118.204 272.868 118.509 272.598 118.898C272.334 119.28 272.136 119.721 272.004 120.221C271.872 120.714 271.806 121.239 271.806 121.794ZM284.651 111.543V127.545H282.713V111.543H284.651ZM287.235 122.034V121.794C287.235 120.982 287.353 120.228 287.589 119.534C287.825 118.832 288.165 118.224 288.61 117.711C289.054 117.19 289.592 116.787 290.225 116.502C290.857 116.21 291.565 116.064 292.35 116.064C293.141 116.064 293.853 116.21 294.485 116.502C295.124 116.787 295.666 117.19 296.111 117.711C296.562 118.224 296.906 118.832 297.142 119.534C297.378 120.228 297.496 120.982 297.496 121.794V122.034C297.496 122.846 297.378 123.6 297.142 124.295C296.906 124.989 296.562 125.597 296.111 126.118C295.666 126.632 295.128 127.034 294.496 127.326C293.871 127.611 293.162 127.753 292.371 127.753C291.579 127.753 290.867 127.611 290.235 127.326C289.603 127.034 289.061 126.632 288.61 126.118C288.165 125.597 287.825 124.989 287.589 124.295C287.353 123.6 287.235 122.846 287.235 122.034ZM289.162 121.794V122.034C289.162 122.596 289.228 123.128 289.36 123.628C289.492 124.121 289.69 124.558 289.954 124.94C290.225 125.322 290.561 125.625 290.964 125.847C291.367 126.062 291.836 126.17 292.371 126.17C292.898 126.17 293.36 126.062 293.756 125.847C294.159 125.625 294.492 125.322 294.756 124.94C295.02 124.558 295.218 124.121 295.35 123.628C295.489 123.128 295.558 122.596 295.558 122.034V121.794C295.558 121.239 295.489 120.714 295.35 120.221C295.218 119.721 295.017 119.28 294.746 118.898C294.482 118.509 294.149 118.204 293.746 117.981C293.35 117.759 292.885 117.648 292.35 117.648C291.822 117.648 291.357 117.759 290.954 117.981C290.558 118.204 290.225 118.509 289.954 118.898C289.69 119.28 289.492 119.721 289.36 120.221C289.228 120.714 289.162 121.239 289.162 121.794ZM307.216 116.273H308.966V127.305C308.966 128.298 308.765 129.146 308.362 129.847C307.959 130.549 307.397 131.08 306.674 131.441C305.959 131.809 305.132 131.993 304.195 131.993C303.806 131.993 303.347 131.931 302.82 131.806C302.299 131.688 301.785 131.483 301.278 131.191C300.778 130.906 300.358 130.521 300.017 130.035L301.028 128.889C301.5 129.458 301.993 129.854 302.507 130.076C303.028 130.299 303.542 130.41 304.049 130.41C304.66 130.41 305.188 130.295 305.632 130.066C306.077 129.837 306.421 129.497 306.664 129.045C306.914 128.601 307.039 128.052 307.039 127.399V118.752L307.216 116.273ZM299.455 122.034V121.815C299.455 120.954 299.555 120.173 299.757 119.471C299.965 118.763 300.26 118.155 300.642 117.648C301.031 117.141 301.5 116.752 302.049 116.481C302.597 116.203 303.216 116.064 303.903 116.064C304.612 116.064 305.23 116.19 305.757 116.44C306.292 116.683 306.744 117.04 307.112 117.513C307.487 117.978 307.782 118.54 307.997 119.2C308.213 119.86 308.362 120.607 308.445 121.44V122.399C308.369 123.225 308.22 123.968 307.997 124.628C307.782 125.288 307.487 125.85 307.112 126.316C306.744 126.781 306.292 127.139 305.757 127.389C305.223 127.632 304.598 127.753 303.882 127.753C303.209 127.753 302.597 127.611 302.049 127.326C301.507 127.041 301.042 126.642 300.653 126.128C300.264 125.614 299.965 125.01 299.757 124.315C299.555 123.614 299.455 122.853 299.455 122.034ZM301.382 121.815V122.034C301.382 122.596 301.438 123.124 301.549 123.617C301.667 124.111 301.844 124.545 302.08 124.92C302.323 125.295 302.632 125.59 303.007 125.805C303.382 126.014 303.83 126.118 304.351 126.118C304.99 126.118 305.518 125.982 305.935 125.711C306.351 125.441 306.681 125.083 306.924 124.638C307.174 124.194 307.369 123.711 307.508 123.19V120.68C307.431 120.298 307.313 119.929 307.153 119.575C307.001 119.214 306.799 118.895 306.549 118.617C306.306 118.332 306.004 118.106 305.643 117.94C305.282 117.773 304.858 117.69 304.372 117.69C303.844 117.69 303.389 117.801 303.007 118.023C302.632 118.238 302.323 118.537 302.08 118.919C301.844 119.294 301.667 119.732 301.549 120.232C301.438 120.725 301.382 121.253 301.382 121.815ZM315.061 126.378L318.196 116.273H320.259L315.738 129.285C315.634 129.563 315.495 129.861 315.321 130.181C315.154 130.507 314.939 130.816 314.675 131.108C314.411 131.4 314.092 131.636 313.717 131.816C313.349 132.004 312.908 132.098 312.394 132.098C312.241 132.098 312.046 132.077 311.81 132.035C311.574 131.993 311.407 131.959 311.31 131.931L311.3 130.368C311.355 130.375 311.442 130.382 311.56 130.389C311.685 130.403 311.772 130.41 311.821 130.41C312.258 130.41 312.63 130.351 312.935 130.233C313.241 130.122 313.498 129.931 313.706 129.66C313.922 129.396 314.106 129.031 314.258 128.566L315.061 126.378ZM312.758 116.273L315.686 125.024L316.186 127.055L314.8 127.764L310.654 116.273H312.758Z" fill="white"/>
<path d="M62.9305 27.3963C54.8899 36.0594 38.7265 55.6304 38.7265 55.6304L0 55.6304C0 55.6304 20.3478 31.4433 30.4397 20.4405C32.9832 17.7214 35.2805 14.9707 38.2342 12.3149C41.5982 9.2164 45.3723 6.18115 50.3773 3.43045C52.4261 2.19639 55.2849 1.19291 58.6641 0.521672C60.4005 0.207052 62.284 0.0308715 64.2014 0.00370587C66.1189 -0.0234597 68.0309 0.0989493 69.8226 0.363586C74.007 0.995929 77.453 2.19738 80.1605 3.55692C85.0014 6.02306 87.9551 8.96346 90.1704 11.9039C97.9293 20.9113 101.62 30.365 101.083 39.8534C100.919 44.4379 99.5238 51.2356 97.4726 55.662L63.0126 55.662C63.0126 55.662 65.0638 52.1841 73.2685 42.6041C74.4992 41.1497 75.9761 39.6954 76.7966 38.1777C78.0098 35.9315 78.6147 33.6428 78.6016 31.3484C78.3555 29.2933 78.0273 27.175 76.0582 25.2463C75.2377 24.5507 74.2531 23.7919 72.284 23.5074C70.643 23.2544 69.0021 23.6022 67.8534 24.0449C65.474 24.9301 64.1612 26.1948 62.9305 27.3963Z" fill="white"/>
<path d="M62.8702 102.164C70.9109 93.5012 87.0743 73.9301 87.0743 73.9301H125.801C125.801 73.9301 105.453 98.1173 95.3611 109.12C92.8176 111.839 90.5203 114.59 87.5666 117.246C84.2026 120.344 80.4284 123.379 75.4235 126.13C73.3747 127.364 70.5159 128.368 67.1367 129.039C65.4003 129.353 63.5168 129.53 61.5993 129.557C59.6819 129.584 57.7699 129.462 55.9782 129.197C51.7938 128.565 48.3478 127.363 45.6402 126.004C40.7994 123.537 37.8457 120.597 35.6304 117.657C27.8715 108.649 24.1805 99.1956 24.7181 89.7071C24.8822 85.1226 26.277 78.3249 28.3282 73.8985H62.7882C62.7882 73.8985 60.737 77.3764 52.5322 86.9564C51.3015 88.4108 49.8247 89.8652 49.0042 91.3828C47.7909 93.6291 47.186 95.9178 47.1991 98.2121C47.4453 100.267 47.7735 102.386 49.7426 104.314C50.5631 105.01 51.5477 105.769 53.5168 106.053C55.1577 106.306 56.7987 105.958 57.9474 105.516C60.3268 104.63 61.6395 103.366 62.8702 102.164Z" fill="white"/>
<path d="M157.898 78.3278C157.898 77.1715 157.717 76.1511 157.354 75.2669C157.014 74.3599 156.401 73.5437 155.517 72.8181C154.656 72.0925 153.454 71.401 151.912 70.7434C150.393 70.0859 148.466 69.417 146.13 68.7368C143.681 68.0113 141.471 67.2063 139.498 66.3221C137.526 65.4151 135.836 64.3834 134.431 63.2271C133.025 62.0707 131.948 60.7443 131.2 59.2478C130.451 57.7514 130.077 56.0395 130.077 54.1122C130.077 52.1849 130.474 50.4051 131.268 48.7725C132.061 47.14 133.195 45.7229 134.669 44.5212C136.165 43.2968 137.945 42.3445 140.008 41.6643C142.072 40.9841 144.373 40.644 146.912 40.644C150.631 40.644 153.783 41.3582 156.367 42.7867C158.975 44.1924 160.959 46.0404 162.319 48.3304C163.68 50.5978 164.36 53.0239 164.36 55.6087H157.83C157.83 53.7494 157.433 52.1056 156.64 50.6771C155.846 49.226 154.644 48.0923 153.034 47.2761C151.425 46.4371 149.384 46.0177 146.912 46.0177C144.577 46.0177 142.65 46.3691 141.131 47.072C139.611 47.7749 138.478 48.7272 137.73 49.9289C137.004 51.1306 136.641 52.5024 136.641 54.0442C136.641 55.0872 136.857 56.0395 137.287 56.9011C137.741 57.74 138.432 58.5223 139.362 59.2478C140.314 59.9734 141.516 60.6423 142.967 61.2545C144.441 61.8667 146.198 62.4562 148.239 63.023C151.05 63.8166 153.477 64.7009 155.517 65.6759C157.558 66.6508 159.236 67.7505 160.551 68.9749C161.888 70.1766 162.875 71.5484 163.51 73.0902C164.167 74.6093 164.496 76.3325 164.496 78.2598C164.496 80.2778 164.088 82.103 163.272 83.7355C162.455 85.368 161.288 86.7625 159.768 87.9188C158.249 89.0752 156.424 89.9708 154.293 90.6057C152.184 91.2179 149.826 91.524 147.219 91.524C144.928 91.524 142.672 91.2065 140.45 90.5717C138.251 89.9368 136.244 88.9845 134.431 87.7148C132.639 86.445 131.2 84.8805 130.111 83.0213C129.046 81.1394 128.513 78.9627 128.513 76.4912H135.043C135.043 78.1918 135.371 79.6542 136.029 80.8786C136.687 82.0803 137.582 83.078 138.716 83.8716C139.872 84.6651 141.176 85.2547 142.627 85.6401C144.101 86.0029 145.631 86.1843 147.219 86.1843C149.509 86.1843 151.447 85.8669 153.034 85.232C154.622 84.5971 155.823 83.6902 156.64 82.5111C157.478 81.3321 157.898 79.9377 157.898 78.3278ZM181.229 84.3137L190.684 54.0442H194.833L194.017 60.0641L184.392 90.8438H180.345L181.229 84.3137ZM174.869 54.0442L182.93 84.6538L183.508 90.8438H179.257L168.577 54.0442H174.869ZM203.88 84.4157L211.567 54.0442H217.825L207.145 90.8438H202.928L203.88 84.4157ZM195.752 54.0442L205.003 83.8035L206.057 90.8438H202.044L192.147 59.9961L191.33 54.0442H195.752ZM222.62 72.8521V72.0699C222.62 69.417 223.006 66.9569 223.777 64.6895C224.547 62.3995 225.658 60.4155 227.11 58.7377C228.561 57.0371 230.318 55.7221 232.381 54.7924C234.445 53.8401 236.757 53.364 239.319 53.364C241.904 53.364 244.228 53.8401 246.292 54.7924C248.378 55.7221 250.146 57.0371 251.597 58.7377C253.071 60.4155 254.193 62.3995 254.964 64.6895C255.735 66.9569 256.121 69.417 256.121 72.0699V72.8521C256.121 75.5049 255.735 77.965 254.964 80.2324C254.193 82.4998 253.071 84.4838 251.597 86.1843C250.146 87.8621 248.389 89.1772 246.326 90.1295C244.285 91.0592 241.972 91.524 239.387 91.524C236.803 91.524 234.479 91.0592 232.415 90.1295C230.352 89.1772 228.583 87.8621 227.11 86.1843C225.658 84.4838 224.547 82.4998 223.777 80.2324C223.006 77.965 222.62 75.5049 222.62 72.8521ZM228.912 72.0699V72.8521C228.912 74.6887 229.128 76.4232 229.558 78.0557C229.989 79.6656 230.635 81.094 231.497 82.3411C232.381 83.5881 233.481 84.5744 234.796 85.3C236.111 86.0029 237.642 86.3543 239.387 86.3543C241.111 86.3543 242.618 86.0029 243.911 85.3C245.226 84.5744 246.314 83.5881 247.176 82.3411C248.038 81.094 248.684 79.6656 249.115 78.0557C249.568 76.4232 249.795 74.6887 249.795 72.8521V72.0699C249.795 70.256 249.568 68.5441 249.115 66.9342C248.684 65.3017 248.026 63.8619 247.142 62.6149C246.28 61.3452 245.192 60.3475 243.877 59.622C242.584 58.8964 241.065 58.5336 239.319 58.5336C237.596 58.5336 236.077 58.8964 234.762 59.622C233.47 60.3475 232.381 61.3452 231.497 62.6149C230.635 63.8619 229.989 65.3017 229.558 66.9342C229.128 68.5441 228.912 70.256 228.912 72.0699ZM262.345 72.8521V72.0699C262.345 69.417 262.73 66.9569 263.501 64.6895C264.272 62.3995 265.383 60.4155 266.834 58.7377C268.285 57.0371 270.042 55.7221 272.106 54.7924C274.169 53.8401 276.482 53.364 279.044 53.364C281.629 53.364 283.953 53.8401 286.016 54.7924C288.102 55.7221 289.871 57.0371 291.322 58.7377C292.796 60.4155 293.918 62.3995 294.689 64.6895C295.46 66.9569 295.845 69.417 295.845 72.0699V72.8521C295.845 75.5049 295.46 77.965 294.689 80.2324C293.918 82.4998 292.796 84.4838 291.322 86.1843C289.871 87.8621 288.113 89.1772 286.05 90.1295C284.009 91.0592 281.697 91.524 279.112 91.524C276.527 91.524 274.203 91.0592 272.14 90.1295C270.076 89.1772 268.308 87.8621 266.834 86.1843C265.383 84.4838 264.272 82.4998 263.501 80.2324C262.73 77.965 262.345 75.5049 262.345 72.8521ZM268.637 72.0699V72.8521C268.637 74.6887 268.852 76.4232 269.283 78.0557C269.714 79.6656 270.36 81.094 271.221 82.3411C272.106 83.5881 273.205 84.5744 274.521 85.3C275.836 86.0029 277.366 86.3543 279.112 86.3543C280.835 86.3543 282.343 86.0029 283.635 85.3C284.95 84.5744 286.039 83.5881 286.9 82.3411C287.762 81.094 288.408 79.6656 288.839 78.0557C289.292 76.4232 289.519 74.6887 289.519 72.8521V72.0699C289.519 70.256 289.292 68.5441 288.839 66.9342C288.408 65.3017 287.751 63.8619 286.866 62.6149C286.005 61.3452 284.916 60.3475 283.601 59.622C282.309 58.8964 280.79 58.5336 279.044 58.5336C277.321 58.5336 275.802 58.8964 274.486 59.622C273.194 60.3475 272.106 61.3452 271.221 62.6149C270.36 63.8619 269.714 65.3017 269.283 66.9342C268.852 68.5441 268.637 70.256 268.637 72.0699ZM326.251 82.3411V54.0442H332.577V90.8438H326.557L326.251 82.3411ZM327.441 74.5866L330.06 74.5186C330.06 76.9674 329.799 79.2348 329.278 81.3208C328.779 83.3841 327.963 85.1753 326.829 86.6944C325.695 88.2136 324.21 89.404 322.374 90.2656C320.537 91.1045 318.304 91.524 315.673 91.524C313.882 91.524 312.238 91.2632 310.742 90.7417C309.268 90.2202 307.998 89.4153 306.933 88.327C305.867 87.2386 305.039 85.8215 304.45 84.0756C303.883 82.3297 303.6 80.2324 303.6 77.7837V54.0442H309.892V77.8517C309.892 79.5069 310.073 80.8786 310.436 81.967C310.821 83.0326 311.331 83.8829 311.966 84.5178C312.624 85.13 313.349 85.5608 314.143 85.8102C314.959 86.0596 315.798 86.1843 316.66 86.1843C319.335 86.1843 321.455 85.6741 323.02 84.6538C324.584 83.6108 325.707 82.2164 326.387 80.4705C327.09 78.7019 327.441 76.7407 327.441 74.5866Z" fill="white"/>
</svg>
