<svg width="237" height="94" viewBox="0 0 237 94" fill="none" xmlns="http://www.w3.org/2000/svg">
<path d="M73.6879 78.7724H75.0539L78.5383 87.4432L82.0154 78.7724H83.3887L79.0643 89.4082H77.9978L73.6879 78.7724ZM73.2423 78.7724H74.4476L74.6449 85.2591V89.4082H73.2423V78.7724ZM82.6217 78.7724H83.827V89.4082H82.4245V85.2591L82.6217 78.7724ZM90.7593 88.0568V83.988C90.7593 83.6763 90.696 83.4061 90.5694 83.1772C90.4476 82.9434 90.2626 82.7632 90.0142 82.6366C89.7659 82.51 89.4591 82.4467 89.0938 82.4467C88.7529 82.4467 88.4534 82.5051 88.1953 82.622C87.9421 82.7389 87.7424 82.8923 87.5963 83.0822C87.4551 83.2721 87.3845 83.4767 87.3845 83.6958H86.0331C86.0331 83.4134 86.1061 83.1334 86.2522 82.8558C86.3983 82.5782 86.6077 82.3274 86.8805 82.1034C87.158 81.8745 87.4892 81.6943 87.8739 81.5628C88.2635 81.4265 88.6969 81.3583 89.1742 81.3583C89.7488 81.3583 90.2553 81.4557 90.6936 81.6505C91.1367 81.8453 91.4825 82.1399 91.7309 82.5344C91.9841 82.9239 92.1107 83.4134 92.1107 84.0026V87.6843C92.1107 87.9472 92.1326 88.2273 92.1765 88.5243C92.2252 88.8214 92.2958 89.0771 92.3883 89.2913V89.4082H90.9785C90.9103 89.2524 90.8567 89.0454 90.8178 88.7873C90.7788 88.5243 90.7593 88.2808 90.7593 88.0568ZM90.9931 84.6162L91.0077 85.5659H89.6417C89.257 85.5659 88.9136 85.5975 88.6117 85.6608C88.3098 85.7193 88.0565 85.8094 87.852 85.9311C87.6475 86.0529 87.4916 86.2063 87.3845 86.3913C87.2773 86.5715 87.2238 86.7833 87.2238 87.0268C87.2238 87.2752 87.2798 87.5016 87.3918 87.7062C87.5038 87.9107 87.6718 88.0739 87.8958 88.1956C88.1247 88.3125 88.4047 88.3709 88.7359 88.3709C89.1498 88.3709 89.5151 88.2833 89.8316 88.1079C90.1481 87.9326 90.3989 87.7184 90.584 87.4651C90.7739 87.2119 90.8762 86.966 90.8908 86.7273L91.4679 87.3775C91.4338 87.582 91.3413 87.8084 91.1903 88.0568C91.0393 88.3052 90.8372 88.5438 90.584 88.7727C90.3356 88.9967 90.0386 89.1842 89.6928 89.3352C89.3519 89.4813 88.9672 89.5543 88.5386 89.5543C88.003 89.5543 87.533 89.4496 87.1288 89.2402C86.7295 89.0308 86.4178 88.7508 86.1938 88.4001C85.9747 88.0446 85.8651 87.6477 85.8651 87.2094C85.8651 86.7858 85.9479 86.4132 86.1134 86.0918C86.279 85.7655 86.5176 85.4952 86.8293 85.281C87.141 85.0618 87.516 84.8963 87.9543 84.7842C88.3926 84.6722 88.882 84.6162 89.4225 84.6162H90.9931ZM97.5455 81.5044V82.5417H93.2722V81.5044H97.5455ZM94.7185 79.5832H96.0699V87.4505C96.0699 87.7184 96.1113 87.9205 96.1941 88.0568C96.2769 88.1932 96.384 88.2833 96.5155 88.3271C96.647 88.3709 96.7882 88.3928 96.9392 88.3928C97.0512 88.3928 97.1681 88.3831 97.2898 88.3636C97.4165 88.3393 97.5114 88.3198 97.5747 88.3052L97.582 89.4082C97.4749 89.4423 97.3337 89.4739 97.1584 89.5032C96.9879 89.5373 96.7809 89.5543 96.5374 89.5543C96.2063 89.5543 95.9019 89.4886 95.6243 89.3571C95.3468 89.2256 95.1252 89.0064 94.9596 88.6996C94.7989 88.388 94.7185 87.9692 94.7185 87.4432V79.5832ZM100.482 78.188V89.4082H99.1307V78.188H100.482ZM100.161 85.1568L99.5982 85.1349C99.603 84.5943 99.6834 84.0952 99.8392 83.6374C99.9951 83.1747 100.214 82.773 100.497 82.4321C100.779 82.0912 101.115 81.8282 101.505 81.6432C101.899 81.4532 102.335 81.3583 102.812 81.3583C103.202 81.3583 103.553 81.4118 103.864 81.519C104.176 81.6213 104.441 81.7868 104.66 82.0157C104.884 82.2446 105.055 82.5417 105.172 82.9069C105.289 83.2673 105.347 83.708 105.347 84.2291V89.4082H103.988V84.2145C103.988 83.8005 103.927 83.4694 103.806 83.221C103.684 82.9678 103.506 82.7852 103.272 82.6731C103.039 82.5563 102.751 82.4978 102.411 82.4978C102.075 82.4978 101.768 82.5684 101.49 82.7097C101.217 82.8509 100.981 83.0457 100.782 83.2941C100.587 83.5424 100.433 83.8273 100.321 84.1487C100.214 84.4653 100.161 84.8013 100.161 85.1568ZM110.65 89.5543C110.1 89.5543 109.601 89.4618 109.153 89.2767C108.71 89.0868 108.327 88.8214 108.006 88.4805C107.689 88.1396 107.446 87.7354 107.276 87.2679C107.105 86.8004 107.02 86.289 107.02 85.7339V85.4271C107.02 84.7842 107.115 84.212 107.305 83.7104C107.495 83.204 107.753 82.7754 108.079 82.4248C108.405 82.0742 108.775 81.8087 109.189 81.6286C109.603 81.4484 110.032 81.3583 110.475 81.3583C111.04 81.3583 111.527 81.4557 111.936 81.6505C112.35 81.8453 112.688 82.118 112.951 82.4686C113.214 82.8144 113.409 83.2234 113.536 83.6958C113.662 84.1633 113.726 84.6747 113.726 85.2298V85.8361H107.823V84.7331H112.374V84.6308C112.355 84.2802 112.282 83.9393 112.155 83.6082C112.033 83.277 111.839 83.0043 111.571 82.79C111.303 82.5757 110.938 82.4686 110.475 82.4686C110.168 82.4686 109.886 82.5344 109.628 82.6658C109.37 82.7925 109.148 82.9824 108.963 83.2356C108.778 83.4889 108.634 83.7981 108.532 84.1633C108.43 84.5286 108.379 84.9498 108.379 85.4271V85.7339C108.379 86.1089 108.43 86.4619 108.532 86.7931C108.639 87.1194 108.793 87.4067 108.992 87.655C109.197 87.9034 109.443 88.0982 109.73 88.2394C110.022 88.3807 110.353 88.4513 110.723 88.4513C111.201 88.4513 111.605 88.3539 111.936 88.1591C112.267 87.9643 112.557 87.7037 112.805 87.3775L113.623 88.0276C113.453 88.2857 113.236 88.5316 112.973 88.7654C112.71 88.9991 112.386 89.1891 112.002 89.3352C111.622 89.4813 111.171 89.5543 110.65 89.5543ZM116.648 83.0749V89.4082H115.289V81.5044H116.575L116.648 83.0749ZM116.37 85.1568L115.742 85.1349C115.747 84.5943 115.817 84.0952 115.954 83.6374C116.09 83.1747 116.292 82.773 116.56 82.4321C116.828 82.0912 117.161 81.8282 117.561 81.6432C117.96 81.4532 118.423 81.3583 118.949 81.3583C119.319 81.3583 119.66 81.4118 119.971 81.519C120.283 81.6213 120.553 81.7844 120.782 82.0084C121.011 82.2324 121.189 82.5197 121.315 82.8704C121.442 83.221 121.505 83.6447 121.505 84.1414V89.4082H120.154V84.2072C120.154 83.7932 120.083 83.4621 119.942 83.2137C119.806 82.9653 119.611 82.7852 119.358 82.6731C119.105 82.5563 118.807 82.4978 118.467 82.4978C118.067 82.4978 117.734 82.5684 117.466 82.7097C117.198 82.8509 116.984 83.0457 116.823 83.2941C116.662 83.5424 116.545 83.8273 116.472 84.1487C116.404 84.4653 116.37 84.8013 116.37 85.1568ZM121.491 84.4117L120.585 84.6893C120.59 84.2559 120.66 83.8395 120.797 83.4402C120.938 83.0408 121.14 82.6853 121.403 82.3736C121.671 82.062 122 81.816 122.389 81.6359C122.779 81.4508 123.224 81.3583 123.726 81.3583C124.15 81.3583 124.525 81.4143 124.851 81.5263C125.182 81.6383 125.46 81.8112 125.684 82.0449C125.913 82.2738 126.085 82.5684 126.202 82.9288C126.319 83.2892 126.378 83.7177 126.378 84.2145V89.4082H125.019V84.1999C125.019 83.7567 124.948 83.4134 124.807 83.1699C124.671 82.9215 124.476 82.7486 124.223 82.6512C123.974 82.549 123.677 82.4978 123.332 82.4978C123.034 82.4978 122.772 82.549 122.543 82.6512C122.314 82.7535 122.121 82.8947 121.966 83.0749C121.81 83.2502 121.69 83.4523 121.608 83.6812C121.53 83.9101 121.491 84.1536 121.491 84.4117ZM133.084 88.0568V83.988C133.084 83.6763 133.02 83.4061 132.894 83.1772C132.772 82.9434 132.587 82.7632 132.338 82.6366C132.09 82.51 131.783 82.4467 131.418 82.4467C131.077 82.4467 130.778 82.5051 130.52 82.622C130.266 82.7389 130.067 82.8923 129.921 83.0822C129.779 83.2721 129.709 83.4767 129.709 83.6958H128.357C128.357 83.4134 128.43 83.1334 128.576 82.8558C128.723 82.5782 128.932 82.3274 129.205 82.1034C129.482 81.8745 129.813 81.6943 130.198 81.5628C130.588 81.4265 131.021 81.3583 131.498 81.3583C132.073 81.3583 132.579 81.4557 133.018 81.6505C133.461 81.8453 133.807 82.1399 134.055 82.5344C134.308 82.9239 134.435 83.4134 134.435 84.0026V87.6843C134.435 87.9472 134.457 88.2273 134.501 88.5243C134.549 88.8214 134.62 89.0771 134.712 89.2913V89.4082H133.303C133.234 89.2524 133.181 89.0454 133.142 88.7873C133.103 88.5243 133.084 88.2808 133.084 88.0568ZM133.317 84.6162L133.332 85.5659H131.966C131.581 85.5659 131.238 85.5975 130.936 85.6608C130.634 85.7193 130.381 85.8094 130.176 85.9311C129.972 86.0529 129.816 86.2063 129.709 86.3913C129.602 86.5715 129.548 86.7833 129.548 87.0268C129.548 87.2752 129.604 87.5016 129.716 87.7062C129.828 87.9107 129.996 88.0739 130.22 88.1956C130.449 88.3125 130.729 88.3709 131.06 88.3709C131.474 88.3709 131.839 88.2833 132.156 88.1079C132.472 87.9326 132.723 87.7184 132.908 87.4651C133.098 87.2119 133.2 86.966 133.215 86.7273L133.792 87.3775C133.758 87.582 133.665 87.8084 133.515 88.0568C133.364 88.3052 133.161 88.5438 132.908 88.7727C132.66 88.9967 132.363 89.1842 132.017 89.3352C131.676 89.4813 131.291 89.5543 130.863 89.5543C130.327 89.5543 129.857 89.4496 129.453 89.2402C129.054 89.0308 128.742 88.7508 128.518 88.4001C128.299 88.0446 128.189 87.6477 128.189 87.2094C128.189 86.7858 128.272 86.4132 128.438 86.0918C128.603 85.7655 128.842 85.4952 129.154 85.281C129.465 85.0618 129.84 84.8963 130.278 84.7842C130.717 84.6722 131.206 84.6162 131.747 84.6162H133.317ZM139.87 81.5044V82.5417H135.596V81.5044H139.87ZM137.043 79.5832H138.394V87.4505C138.394 87.7184 138.436 87.9205 138.518 88.0568C138.601 88.1932 138.708 88.2833 138.84 88.3271C138.971 88.3709 139.112 88.3928 139.263 88.3928C139.375 88.3928 139.492 88.3831 139.614 88.3636C139.741 88.3393 139.836 88.3198 139.899 88.3052L139.906 89.4082C139.799 89.4423 139.658 89.4739 139.483 89.5032C139.312 89.5373 139.105 89.5543 138.862 89.5543C138.53 89.5543 138.226 89.4886 137.949 89.3571C137.671 89.2256 137.449 89.0064 137.284 88.6996C137.123 88.388 137.043 87.9692 137.043 87.4432V79.5832ZM142.923 81.5044V89.4082H141.564V81.5044H142.923ZM141.462 79.4079C141.462 79.1887 141.528 79.0037 141.659 78.8527C141.796 78.7018 141.995 78.6263 142.258 78.6263C142.516 78.6263 142.714 78.7018 142.85 78.8527C142.991 79.0037 143.062 79.1887 143.062 79.4079C143.062 79.6173 142.991 79.7975 142.85 79.9484C142.714 80.0945 142.516 80.1676 142.258 80.1676C141.995 80.1676 141.796 80.0945 141.659 79.9484C141.528 79.7975 141.462 79.6173 141.462 79.4079ZM148.256 88.444C148.577 88.444 148.874 88.3782 149.147 88.2467C149.42 88.1152 149.644 87.9351 149.819 87.7062C149.994 87.4724 150.094 87.207 150.118 86.91H151.404C151.38 87.3775 151.221 87.8133 150.929 88.2175C150.642 88.6168 150.264 88.9407 149.797 89.1891C149.329 89.4326 148.816 89.5543 148.256 89.5543C147.662 89.5543 147.143 89.4496 146.7 89.2402C146.261 89.0308 145.896 88.7435 145.604 88.3782C145.317 88.013 145.1 87.5942 144.954 87.1218C144.813 86.6445 144.742 86.1405 144.742 85.6097V85.3029C144.742 84.7721 144.813 84.2705 144.954 83.7981C145.1 83.3208 145.317 82.8996 145.604 82.5344C145.896 82.1691 146.261 81.8818 146.7 81.6724C147.143 81.463 147.662 81.3583 148.256 81.3583C148.874 81.3583 149.415 81.4849 149.877 81.7381C150.34 81.9865 150.703 82.3274 150.966 82.7608C151.234 83.1894 151.38 83.6763 151.404 84.2218H150.118C150.094 83.8955 150.002 83.6009 149.841 83.3379C149.685 83.0749 149.471 82.8655 149.198 82.7097C148.93 82.549 148.616 82.4686 148.256 82.4686C147.842 82.4686 147.494 82.5514 147.211 82.717C146.933 82.8777 146.712 83.0968 146.546 83.3744C146.386 83.6471 146.269 83.9515 146.196 84.2875C146.128 84.6187 146.093 84.9571 146.093 85.3029V85.6097C146.093 85.9555 146.128 86.2963 146.196 86.6324C146.264 86.9684 146.378 87.2728 146.539 87.5455C146.705 87.8182 146.926 88.0373 147.204 88.2029C147.486 88.3636 147.837 88.444 148.256 88.444ZM157.525 87.3117C157.525 87.1169 157.482 86.9367 157.394 86.7712C157.311 86.6007 157.138 86.4473 156.875 86.311C156.617 86.1697 156.228 86.048 155.707 85.9457C155.268 85.8532 154.871 85.7436 154.516 85.617C154.165 85.4904 153.866 85.337 153.617 85.1568C153.374 84.9766 153.186 84.7648 153.055 84.5213C152.923 84.2778 152.858 83.9929 152.858 83.6666C152.858 83.3549 152.926 83.0603 153.062 82.7827C153.203 82.5051 153.401 82.2592 153.654 82.0449C153.912 81.8307 154.221 81.6626 154.582 81.5409C154.942 81.4192 155.344 81.3583 155.787 81.3583C156.42 81.3583 156.961 81.4703 157.409 81.6943C157.857 81.9183 158.2 82.2178 158.439 82.5928C158.677 82.9629 158.797 83.3744 158.797 83.8273H157.445C157.445 83.6082 157.379 83.3963 157.248 83.1918C157.121 82.9824 156.934 82.8095 156.685 82.6731C156.442 82.5368 156.142 82.4686 155.787 82.4686C155.412 82.4686 155.108 82.5271 154.874 82.6439C154.645 82.7559 154.477 82.8996 154.37 83.0749C154.268 83.2502 154.216 83.4353 154.216 83.6301C154.216 83.7762 154.241 83.9077 154.289 84.0245C154.343 84.1365 154.436 84.2413 154.567 84.3386C154.699 84.4312 154.884 84.5188 155.122 84.6016C155.361 84.6844 155.665 84.7672 156.035 84.85C156.683 84.9961 157.216 85.1714 157.635 85.3759C158.054 85.5805 158.366 85.8313 158.57 86.1283C158.775 86.4254 158.877 86.7858 158.877 87.2094C158.877 87.5552 158.804 87.8718 158.658 88.1591C158.517 88.4464 158.31 88.6948 158.037 88.9042C157.769 89.1087 157.448 89.2694 157.073 89.3863C156.702 89.4983 156.286 89.5543 155.823 89.5543C155.127 89.5543 154.538 89.4301 154.056 89.1818C153.574 88.9334 153.208 88.612 152.96 88.2175C152.712 87.8231 152.587 87.4067 152.587 86.9684H153.946C153.966 87.3385 154.073 87.6331 154.268 87.8523C154.462 88.0665 154.701 88.22 154.983 88.3125C155.266 88.4001 155.546 88.444 155.823 88.444C156.194 88.444 156.503 88.3953 156.751 88.2979C157.004 88.2005 157.197 88.0665 157.328 87.8961C157.46 87.7257 157.525 87.5309 157.525 87.3117Z" fill="black"/>
<path d="M44.126 19.2099C38.488 25.2843 27.1545 39.0073 27.1545 39.0073L0 39.0073C0 39.0073 14.2676 22.0476 21.3439 14.3326C23.1273 12.426 24.7382 10.4973 26.8093 8.63503C29.1681 6.46241 31.8145 4.33414 35.3238 2.40539C36.7604 1.54008 38.765 0.836455 41.1345 0.365789C42.352 0.145182 43.6727 0.0216467 45.0172 0.0025985C46.3617 -0.0164497 47.7023 0.0693819 48.9586 0.254941C51.8927 0.698332 54.309 1.54077 56.2075 2.49406C59.6018 4.22329 61.6729 6.28505 63.2262 8.34682C68.6667 14.6627 71.2548 21.2915 70.8778 27.9447C70.7628 31.1593 69.7847 35.9257 68.3465 39.0295H44.1836C44.1836 39.0295 45.6218 36.5908 51.3749 29.8734C52.2379 28.8536 53.2734 27.8338 53.8487 26.7697C54.6994 25.1947 55.1236 23.5899 55.1144 21.9811C54.9418 20.5401 54.7117 19.0547 53.331 17.7024C52.7556 17.2146 52.0653 16.6826 50.6846 16.483C49.5339 16.3057 48.3833 16.5495 47.5779 16.8599C45.9095 17.4807 44.989 18.3675 44.126 19.2099Z" fill="black"/>
<path d="M44.0829 71.6358C49.721 65.5614 61.0545 51.8384 61.0545 51.8384H88.209C88.209 51.8384 73.9414 68.7981 66.8651 76.5131C65.0816 78.4197 63.4708 80.3484 61.3997 82.2107C59.0409 84.3833 56.3945 86.5116 52.8851 88.4403C51.4485 89.3056 49.444 90.0092 47.0745 90.4799C45.857 90.7005 44.5363 90.8241 43.1918 90.8431C41.8473 90.8622 40.5067 90.7763 39.2504 90.5908C36.3163 90.1474 33.9 89.3049 32.0015 88.3516C28.6072 86.6224 26.5361 84.5606 24.9827 82.4989C19.5423 76.183 16.9542 69.5542 17.3312 62.901C17.4462 59.6864 18.4242 54.92 19.8625 51.8162H44.0254C44.0254 51.8162 42.5871 54.2549 36.8341 60.9723C35.9711 61.9921 34.9356 63.0119 34.3602 64.076C33.5095 65.651 33.0854 67.2558 33.0946 68.8646C33.2672 70.3056 33.4973 71.791 34.878 73.1433C35.4533 73.6311 36.1437 74.1631 37.5244 74.3627C38.675 74.54 39.8257 74.2962 40.6311 73.9858C42.2995 73.365 43.22 72.4783 44.0829 71.6358Z" fill="black"/>
<path d="M110.716 54.3451C110.716 53.5343 110.589 52.8188 110.334 52.1988C110.096 51.5628 109.667 50.9905 109.047 50.4817C108.442 49.973 107.6 49.4881 106.519 49.027C105.453 48.566 104.102 48.097 102.465 47.62C100.747 47.1113 99.1974 46.5469 97.8142 45.9268C96.431 45.2909 95.2466 44.5675 94.2609 43.7567C93.2752 42.9458 92.52 42.0158 91.9953 40.9665C91.4707 39.9172 91.2084 38.7168 91.2084 37.3654C91.2084 36.0141 91.4866 34.766 92.043 33.6213C92.5995 32.4766 93.3944 31.483 94.4278 30.6404C95.4771 29.7818 96.7252 29.1141 98.1719 28.6371C99.6187 28.1602 101.232 27.9217 103.013 27.9217C105.62 27.9217 107.83 28.4225 109.643 29.4241C111.471 30.4098 112.862 31.7056 113.816 33.3113C114.77 34.9012 115.247 36.6023 115.247 38.4148H110.668C110.668 37.1111 110.39 35.9584 109.834 34.9568C109.277 33.9393 108.434 33.1444 107.306 32.572C106.177 31.9838 104.746 31.6897 103.013 31.6897C101.375 31.6897 100.024 31.9361 98.9589 32.4289C97.8937 32.9218 97.0988 33.5895 96.5741 34.4322C96.0654 35.2748 95.811 36.2366 95.811 37.3178C95.811 38.0491 95.962 38.7168 96.2641 39.321C96.5821 39.9092 97.067 40.4577 97.7188 40.9665C98.3866 41.4752 99.2292 41.9442 100.247 42.3735C101.28 42.8027 102.512 43.2161 103.943 43.6136C105.915 44.17 107.616 44.7901 109.047 45.4737C110.477 46.1573 111.654 46.9284 112.576 47.7869C113.514 48.6296 114.206 49.5914 114.651 50.6725C115.112 51.7377 115.342 52.946 115.342 54.2974C115.342 55.7124 115.056 56.9922 114.484 58.1369C113.911 59.2816 113.093 60.2594 112.028 61.0702C110.962 61.881 109.682 62.509 108.188 62.9542C106.709 63.3834 105.056 63.5981 103.228 63.5981C101.622 63.5981 100.04 63.3755 98.4819 62.9303C96.9398 62.4852 95.5328 61.8174 94.2609 60.9271C93.0049 60.0368 91.9953 58.9398 91.2322 57.6361C90.485 56.3165 90.1114 54.7903 90.1114 53.0573H94.6901C94.6901 54.2497 94.9207 55.2752 95.3817 56.1337C95.8428 56.9763 96.4708 57.6758 97.2657 58.2323C98.0765 58.7887 98.9907 59.2021 100.008 59.4724C101.042 59.7268 102.115 59.8539 103.228 59.8539C104.833 59.8539 106.193 59.6314 107.306 59.1862C108.419 58.741 109.261 58.1051 109.834 57.2784C110.422 56.4517 110.716 55.4739 110.716 54.3451ZM127.075 58.5423L133.705 37.3178H136.615L136.042 41.5388L129.293 63.1211H126.455L127.075 58.5423ZM122.616 37.3178L128.268 58.7808L128.673 63.1211H125.692L118.204 37.3178H122.616ZM142.958 58.6139L148.348 37.3178H152.736L145.248 63.1211H142.29L142.958 58.6139ZM137.259 37.3178L143.745 58.1846L144.484 63.1211H141.67L134.731 41.4911L134.158 37.3178H137.259ZM156.098 50.5056V49.9571C156.098 48.097 156.369 46.372 156.909 44.7821C157.45 43.1764 158.229 41.7852 159.246 40.6087C160.264 39.4164 161.496 38.4942 162.943 37.8424C164.389 37.1747 166.011 36.8408 167.808 36.8408C169.62 36.8408 171.25 37.1747 172.696 37.8424C174.159 38.4942 175.399 39.4164 176.417 40.6087C177.45 41.7852 178.237 43.1764 178.778 44.7821C179.318 46.372 179.588 48.097 179.588 49.9571V50.5056C179.588 52.3657 179.318 54.0907 178.778 55.6806C178.237 57.2704 177.45 58.6616 176.417 59.8539C175.399 61.0304 174.167 61.9526 172.72 62.6203C171.289 63.2721 169.668 63.5981 167.855 63.5981C166.043 63.5981 164.413 63.2721 162.966 62.6203C161.52 61.9526 160.28 61.0304 159.246 59.8539C158.229 58.6616 157.45 57.2704 156.909 55.6806C156.369 54.0907 156.098 52.3657 156.098 50.5056ZM160.51 49.9571V50.5056C160.51 51.7934 160.661 53.0096 160.963 54.1543C161.265 55.2831 161.718 56.2847 162.323 57.1591C162.943 58.0336 163.714 58.7251 164.636 59.2339C165.558 59.7268 166.631 59.9732 167.855 59.9732C169.064 59.9732 170.121 59.7268 171.027 59.2339C171.949 58.7251 172.712 58.0336 173.316 57.1591C173.921 56.2847 174.374 55.2831 174.676 54.1543C174.994 53.0096 175.153 51.7934 175.153 50.5056V49.9571C175.153 48.6852 174.994 47.4849 174.676 46.3561C174.374 45.2114 173.913 44.2018 173.293 43.3274C172.688 42.4371 171.925 41.7375 171.003 41.2288C170.097 40.72 169.032 40.4657 167.808 40.4657C166.599 40.4657 165.534 40.72 164.612 41.2288C163.706 41.7375 162.943 42.4371 162.323 43.3274C161.718 44.2018 161.265 45.2114 160.963 46.3561C160.661 47.4849 160.51 48.6852 160.51 49.9571ZM183.953 50.5056V49.9571C183.953 48.097 184.223 46.372 184.763 44.7821C185.304 43.1764 186.083 41.7852 187.1 40.6087C188.118 39.4164 189.35 38.4942 190.797 37.8424C192.244 37.1747 193.865 36.8408 195.662 36.8408C197.474 36.8408 199.104 37.1747 200.551 37.8424C202.013 38.4942 203.253 39.4164 204.271 40.6087C205.304 41.7852 206.091 43.1764 206.632 44.7821C207.172 46.372 207.443 48.097 207.443 49.9571V50.5056C207.443 52.3657 207.172 54.0907 206.632 55.6806C206.091 57.2704 205.304 58.6616 204.271 59.8539C203.253 61.0304 202.021 61.9526 200.574 62.6203C199.144 63.2721 197.522 63.5981 195.71 63.5981C193.897 63.5981 192.267 63.2721 190.821 62.6203C189.374 61.9526 188.134 61.0304 187.1 59.8539C186.083 58.6616 185.304 57.2704 184.763 55.6806C184.223 54.0907 183.953 52.3657 183.953 50.5056ZM188.364 49.9571V50.5056C188.364 51.7934 188.515 53.0096 188.818 54.1543C189.12 55.2831 189.573 56.2847 190.177 57.1591C190.797 58.0336 191.568 58.7251 192.49 59.2339C193.412 59.7268 194.485 59.9732 195.71 59.9732C196.918 59.9732 197.975 59.7268 198.881 59.2339C199.803 58.7251 200.567 58.0336 201.171 57.1591C201.775 56.2847 202.228 55.2831 202.53 54.1543C202.848 53.0096 203.007 51.7934 203.007 50.5056V49.9571C203.007 48.6852 202.848 47.4849 202.53 46.3561C202.228 45.2114 201.767 44.2018 201.147 43.3274C200.543 42.4371 199.78 41.7375 198.857 41.2288C197.951 40.72 196.886 40.4657 195.662 40.4657C194.454 40.4657 193.388 40.72 192.466 41.2288C191.56 41.7375 190.797 42.4371 190.177 43.3274C189.573 44.2018 189.12 45.2114 188.818 46.3561C188.515 47.4849 188.364 48.6852 188.364 49.9571ZM228.763 57.1591V37.3178H233.198V63.1211H228.977L228.763 57.1591ZM229.597 51.7218L231.434 51.6741C231.434 53.3912 231.251 54.981 230.885 56.4437C230.535 57.8905 229.963 59.1465 229.168 60.2117C228.373 61.2769 227.332 62.1115 226.044 62.7157C224.756 63.3039 223.19 63.5981 221.346 63.5981C220.09 63.5981 218.937 63.4152 217.888 63.0496C216.855 62.6839 215.964 62.1195 215.217 61.3564C214.47 60.5932 213.89 59.5996 213.476 58.3754C213.079 57.1512 212.88 55.6806 212.88 53.9635V37.3178H217.292V54.0112C217.292 55.1718 217.419 56.1337 217.673 56.8968C217.944 57.644 218.301 58.2402 218.747 58.6854C219.208 59.1147 219.716 59.4167 220.273 59.5916C220.845 59.7665 221.433 59.8539 222.038 59.8539C223.914 59.8539 225.4 59.4962 226.497 58.7808C227.594 58.0495 228.381 57.0717 228.858 55.8475C229.351 54.6074 229.597 53.2322 229.597 51.7218Z" fill="black"/>
</svg>
