<svg width="237" height="94" viewBox="0 0 237 94" fill="none" xmlns="http://www.w3.org/2000/svg">
<path d="M77.165 85.2371H74.3234V84.0903H77.165C77.7153 84.0903 78.1609 84.0026 78.5018 83.8273C78.8427 83.652 79.0911 83.4085 79.2469 83.0968C79.4076 82.7852 79.488 82.4297 79.488 82.0303C79.488 81.6651 79.4076 81.3218 79.2469 81.0003C79.0911 80.6789 78.8427 80.4208 78.5018 80.226C78.1609 80.0264 77.7153 79.9265 77.165 79.9265H74.6522V89.4082H73.2423V78.7724H77.165C77.9686 78.7724 78.6479 78.9112 79.2031 79.1887C79.7582 79.4663 80.1795 79.851 80.4668 80.3429C80.7541 80.8299 80.8978 81.3875 80.8978 82.0157C80.8978 82.6975 80.7541 83.2794 80.4668 83.7616C80.1795 84.2437 79.7582 84.6114 79.2031 84.8646C78.6479 85.113 77.9686 85.2371 77.165 85.2371ZM83.827 82.7462V89.4082H82.4756V81.5044H83.7905L83.827 82.7462ZM86.2961 81.4605L86.2888 82.717C86.1768 82.6926 86.0696 82.678 85.9673 82.6731C85.8699 82.6634 85.7579 82.6585 85.6313 82.6585C85.3197 82.6585 85.0445 82.7072 84.8059 82.8046C84.5673 82.902 84.3652 83.0384 84.1996 83.2137C84.034 83.389 83.9025 83.5984 83.8051 83.8419C83.7126 84.0805 83.6517 84.3435 83.6225 84.6308L83.2426 84.85C83.2426 84.3727 83.2889 83.9247 83.3814 83.5059C83.4788 83.0871 83.6274 82.717 83.827 82.3956C84.0267 82.0693 84.2799 81.816 84.5867 81.6359C84.8984 81.4508 85.2685 81.3583 85.6971 81.3583C85.7945 81.3583 85.9065 81.3705 86.0331 81.3948C86.1597 81.4143 86.2474 81.4362 86.2961 81.4605ZM90.679 89.5543C90.1287 89.5543 89.6295 89.4618 89.1815 89.2767C88.7383 89.0868 88.356 88.8214 88.0346 88.4805C87.7181 88.1396 87.4746 87.7354 87.3041 87.2679C87.1337 86.8004 87.0485 86.289 87.0485 85.7339V85.4271C87.0485 84.7842 87.1434 84.212 87.3334 83.7104C87.5233 83.204 87.7814 82.7754 88.1077 82.4248C88.4339 82.0742 88.8041 81.8087 89.218 81.6286C89.6319 81.4484 90.0605 81.3583 90.5036 81.3583C91.0686 81.3583 91.5555 81.4557 91.9646 81.6505C92.3786 81.8453 92.717 82.118 92.98 82.4686C93.243 82.8144 93.4378 83.2234 93.5644 83.6958C93.691 84.1633 93.7543 84.6747 93.7543 85.2298V85.8361H87.852V84.7331H92.4029V84.6308C92.3834 84.2802 92.3104 83.9393 92.1838 83.6082C92.062 83.277 91.8672 83.0043 91.5994 82.79C91.3315 82.5757 90.9663 82.4686 90.5036 82.4686C90.1968 82.4686 89.9144 82.5344 89.6563 82.6658C89.3982 82.7925 89.1766 82.9824 88.9915 83.2356C88.8065 83.4889 88.6628 83.7981 88.5606 84.1633C88.4583 84.5286 88.4072 84.9498 88.4072 85.4271V85.7339C88.4072 86.1089 88.4583 86.4619 88.5606 86.7931C88.6677 87.1194 88.8211 87.4067 89.0208 87.655C89.2253 87.9034 89.4712 88.0982 89.7586 88.2394C90.0507 88.3807 90.3819 88.4513 90.752 88.4513C91.2293 88.4513 91.6335 88.3539 91.9646 88.1591C92.2958 87.9643 92.5855 87.7037 92.8339 87.3775L93.652 88.0276C93.4816 88.2857 93.2649 88.5316 93.0019 88.7654C92.7389 88.9991 92.4151 89.1891 92.0304 89.3352C91.6505 89.4813 91.2 89.5543 90.679 89.5543ZM100.168 87.582V81.5044H101.527V89.4082H100.234L100.168 87.582ZM100.424 85.9165L100.986 85.9019C100.986 86.4278 100.93 86.9148 100.818 87.3629C100.711 87.806 100.536 88.1907 100.292 88.517C100.049 88.8433 99.7297 89.099 99.3352 89.284C98.9407 89.4642 98.461 89.5543 97.8961 89.5543C97.5114 89.5543 97.1583 89.4983 96.8369 89.3863C96.5204 89.2743 96.2477 89.1014 96.0188 88.8676C95.7899 88.6339 95.6122 88.3295 95.4855 87.9545C95.3638 87.5796 95.3029 87.1291 95.3029 86.6031V81.5044H96.6543V86.6178C96.6543 86.9733 96.6933 87.2679 96.7712 87.5016C96.854 87.7305 96.9636 87.9131 97.0999 88.0495C97.2411 88.181 97.397 88.2735 97.5674 88.3271C97.7427 88.3807 97.9229 88.4074 98.108 88.4074C98.6826 88.4074 99.138 88.2979 99.474 88.0787C99.81 87.8547 100.051 87.5552 100.197 87.1802C100.348 86.8004 100.424 86.3791 100.424 85.9165ZM104.938 83.1918V89.4082H103.587V81.5044H104.865L104.938 83.1918ZM104.617 85.1568L104.054 85.1349C104.059 84.5943 104.139 84.0952 104.295 83.6374C104.451 83.1747 104.67 82.773 104.953 82.4321C105.235 82.0912 105.571 81.8282 105.961 81.6432C106.355 81.4532 106.791 81.3583 107.268 81.3583C107.658 81.3583 108.008 81.4118 108.32 81.519C108.632 81.6213 108.897 81.7868 109.116 82.0157C109.34 82.2446 109.511 82.5417 109.628 82.9069C109.745 83.2673 109.803 83.708 109.803 84.2291V89.4082H108.444V84.2145C108.444 83.8005 108.383 83.4694 108.262 83.221C108.14 82.9678 107.962 82.7852 107.728 82.6731C107.495 82.5563 107.207 82.4978 106.866 82.4978C106.53 82.4978 106.224 82.5684 105.946 82.7097C105.673 82.8509 105.437 83.0457 105.237 83.2941C105.043 83.5424 104.889 83.8273 104.777 84.1487C104.67 84.4653 104.617 84.8013 104.617 85.1568ZM113.324 81.5044V89.4082H111.965V81.5044H113.324ZM111.863 79.4079C111.863 79.1887 111.929 79.0037 112.06 78.8527C112.197 78.7018 112.396 78.6263 112.659 78.6263C112.917 78.6263 113.115 78.7018 113.251 78.8527C113.392 79.0037 113.463 79.1887 113.463 79.4079C113.463 79.6173 113.392 79.7975 113.251 79.9484C113.115 80.0945 112.917 80.1676 112.659 80.1676C112.396 80.1676 112.197 80.0945 112.06 79.9484C111.929 79.7975 111.863 79.6173 111.863 79.4079ZM117.897 88.1883L120.059 81.5044H121.44L118.598 89.4082H117.692L117.897 88.1883ZM116.092 81.5044L118.32 88.2248L118.474 89.4082H117.568L114.705 81.5044H116.092ZM125.917 89.5543C125.367 89.5543 124.868 89.4618 124.42 89.2767C123.977 89.0868 123.595 88.8214 123.273 88.4805C122.957 88.1396 122.713 87.7354 122.543 87.2679C122.372 86.8004 122.287 86.289 122.287 85.7339V85.4271C122.287 84.7842 122.382 84.212 122.572 83.7104C122.762 83.204 123.02 82.7754 123.346 82.4248C123.672 82.0742 124.043 81.8087 124.457 81.6286C124.87 81.4484 125.299 81.3583 125.742 81.3583C126.307 81.3583 126.794 81.4557 127.203 81.6505C127.617 81.8453 127.956 82.118 128.218 82.4686C128.481 82.8144 128.676 83.2234 128.803 83.6958C128.93 84.1633 128.993 84.6747 128.993 85.2298V85.8361H123.091V84.7331H127.641V84.6308C127.622 84.2802 127.549 83.9393 127.422 83.6082C127.301 83.277 127.106 83.0043 126.838 82.79C126.57 82.5757 126.205 82.4686 125.742 82.4686C125.435 82.4686 125.153 82.5344 124.895 82.6658C124.637 82.7925 124.415 82.9824 124.23 83.2356C124.045 83.4889 123.901 83.7981 123.799 84.1633C123.697 84.5286 123.646 84.9498 123.646 85.4271V85.7339C123.646 86.1089 123.697 86.4619 123.799 86.7931C123.906 87.1194 124.06 87.4067 124.259 87.655C124.464 87.9034 124.71 88.0982 124.997 88.2394C125.289 88.3807 125.62 88.4513 125.991 88.4513C126.468 88.4513 126.872 88.3539 127.203 88.1591C127.534 87.9643 127.824 87.7037 128.072 87.3775L128.891 88.0276C128.72 88.2857 128.503 88.5316 128.24 88.7654C127.977 88.9991 127.654 89.1891 127.269 89.3352C126.889 89.4813 126.439 89.5543 125.917 89.5543ZM131.922 82.7462V89.4082H130.571V81.5044H131.886L131.922 82.7462ZM134.391 81.4605L134.384 82.717C134.272 82.6926 134.165 82.678 134.062 82.6731C133.965 82.6634 133.853 82.6585 133.726 82.6585C133.415 82.6585 133.14 82.7072 132.901 82.8046C132.662 82.902 132.46 83.0384 132.295 83.2137C132.129 83.389 131.998 83.5984 131.9 83.8419C131.808 84.0805 131.747 84.3435 131.718 84.6308L131.338 84.85C131.338 84.3727 131.384 83.9247 131.476 83.5059C131.574 83.0871 131.722 82.717 131.922 82.3956C132.122 82.0693 132.375 81.816 132.682 81.6359C132.993 81.4508 133.364 81.3583 133.792 81.3583C133.889 81.3583 134.001 81.3705 134.128 81.3948C134.255 81.4143 134.342 81.4362 134.391 81.4605ZM140.242 87.3117C140.242 87.1169 140.198 86.9367 140.111 86.7712C140.028 86.6007 139.855 86.4473 139.592 86.311C139.334 86.1697 138.944 86.048 138.423 85.9457C137.985 85.8532 137.588 85.7436 137.233 85.617C136.882 85.4904 136.583 85.337 136.334 85.1568C136.091 84.9766 135.903 84.7648 135.772 84.5213C135.64 84.2778 135.574 83.9929 135.574 83.6666C135.574 83.3549 135.643 83.0603 135.779 82.7827C135.92 82.5051 136.117 82.2592 136.371 82.0449C136.629 81.8307 136.938 81.6626 137.298 81.5409C137.659 81.4192 138.061 81.3583 138.504 81.3583C139.137 81.3583 139.677 81.4703 140.125 81.6943C140.573 81.9183 140.917 82.2178 141.155 82.5928C141.394 82.9629 141.513 83.3744 141.513 83.8273H140.162C140.162 83.6082 140.096 83.3963 139.965 83.1918C139.838 82.9824 139.651 82.8095 139.402 82.6731C139.159 82.5368 138.859 82.4686 138.504 82.4686C138.129 82.4686 137.824 82.5271 137.591 82.6439C137.362 82.7559 137.194 82.8996 137.087 83.0749C136.984 83.2502 136.933 83.4353 136.933 83.6301C136.933 83.7762 136.958 83.9077 137.006 84.0245C137.06 84.1365 137.152 84.2413 137.284 84.3386C137.415 84.4312 137.6 84.5188 137.839 84.6016C138.078 84.6844 138.382 84.7672 138.752 84.85C139.4 84.9961 139.933 85.1714 140.352 85.3759C140.771 85.5805 141.082 85.8313 141.287 86.1283C141.491 86.4254 141.594 86.7858 141.594 87.2094C141.594 87.5552 141.521 87.8718 141.375 88.1591C141.233 88.4464 141.026 88.6948 140.754 88.9042C140.486 89.1087 140.164 89.2694 139.789 89.3863C139.419 89.4983 139.003 89.5543 138.54 89.5543C137.844 89.5543 137.255 89.4301 136.772 89.1818C136.29 88.9334 135.925 88.612 135.677 88.2175C135.428 87.8231 135.304 87.4067 135.304 86.9684H136.663C136.682 87.3385 136.79 87.6331 136.984 87.8523C137.179 88.0665 137.418 88.22 137.7 88.3125C137.983 88.4001 138.263 88.444 138.54 88.444C138.91 88.444 139.22 88.3953 139.468 88.2979C139.721 88.2005 139.914 88.0665 140.045 87.8961C140.177 87.7257 140.242 87.5309 140.242 87.3117ZM144.837 81.5044V89.4082H143.478V81.5044H144.837ZM143.376 79.4079C143.376 79.1887 143.442 79.0037 143.573 78.8527C143.71 78.7018 143.909 78.6263 144.172 78.6263C144.43 78.6263 144.628 78.7018 144.764 78.8527C144.905 79.0037 144.976 79.1887 144.976 79.4079C144.976 79.6173 144.905 79.7975 144.764 79.9484C144.628 80.0945 144.43 80.1676 144.172 80.1676C143.909 80.1676 143.71 80.0945 143.573 79.9484C143.442 79.7975 143.376 79.6173 143.376 79.4079ZM150.316 81.5044V82.5417H146.042V81.5044H150.316ZM147.489 79.5832H148.84V87.4505C148.84 87.7184 148.881 87.9205 148.964 88.0568C149.047 88.1932 149.154 88.2833 149.286 88.3271C149.417 88.3709 149.558 88.3928 149.709 88.3928C149.821 88.3928 149.938 88.3831 150.06 88.3636C150.187 88.3393 150.282 88.3198 150.345 88.3052L150.352 89.4082C150.245 89.4423 150.104 89.4739 149.928 89.5032C149.758 89.5373 149.551 89.5543 149.308 89.5543C148.976 89.5543 148.672 89.4886 148.394 89.3571C148.117 89.2256 147.895 89.0064 147.73 88.6996C147.569 88.388 147.489 87.9692 147.489 87.4432V79.5832ZM154.121 88.5901L156.32 81.5044H157.767L154.596 90.6281C154.523 90.8229 154.426 91.0323 154.304 91.2563C154.187 91.4852 154.036 91.7019 153.851 91.9065C153.666 92.111 153.442 92.2766 153.179 92.4032C152.921 92.5347 152.612 92.6004 152.251 92.6004C152.144 92.6004 152.008 92.5858 151.842 92.5566C151.677 92.5274 151.56 92.503 151.492 92.4835L151.484 91.3878C151.523 91.3927 151.584 91.3976 151.667 91.4024C151.755 91.4122 151.816 91.417 151.85 91.417C152.156 91.417 152.417 91.3756 152.631 91.2928C152.846 91.2149 153.026 91.081 153.172 90.8911C153.323 90.706 153.452 90.4504 153.559 90.1241L154.121 88.5901ZM152.507 81.5044L154.56 87.6404L154.91 89.0649L153.939 89.5616L151.031 81.5044H152.507Z" fill="black"/>
<path d="M44.126 19.2099C38.488 25.2843 27.1545 39.0073 27.1545 39.0073L0 39.0073C0 39.0073 14.2676 22.0476 21.3439 14.3326C23.1273 12.426 24.7382 10.4973 26.8093 8.63503C29.1681 6.46241 31.8145 4.33414 35.3238 2.40539C36.7604 1.54008 38.765 0.836455 41.1345 0.365789C42.352 0.145182 43.6727 0.0216467 45.0172 0.0025985C46.3617 -0.0164497 47.7023 0.0693819 48.9586 0.254941C51.8927 0.698332 54.309 1.54077 56.2075 2.49406C59.6018 4.22329 61.6729 6.28505 63.2262 8.34682C68.6667 14.6627 71.2548 21.2915 70.8778 27.9447C70.7628 31.1593 69.7847 35.9257 68.3465 39.0295H44.1836C44.1836 39.0295 45.6218 36.5908 51.3749 29.8734C52.2379 28.8536 53.2734 27.8338 53.8487 26.7697C54.6994 25.1947 55.1236 23.5899 55.1144 21.9811C54.9418 20.5401 54.7117 19.0547 53.331 17.7024C52.7556 17.2146 52.0653 16.6826 50.6846 16.483C49.5339 16.3057 48.3833 16.5495 47.5779 16.8599C45.9095 17.4807 44.989 18.3675 44.126 19.2099Z" fill="black"/>
<path d="M44.0829 71.6358C49.721 65.5614 61.0545 51.8384 61.0545 51.8384H88.209C88.209 51.8384 73.9414 68.7981 66.8651 76.5131C65.0816 78.4197 63.4708 80.3484 61.3997 82.2107C59.0409 84.3833 56.3945 86.5116 52.8851 88.4403C51.4485 89.3056 49.444 90.0092 47.0745 90.4799C45.857 90.7005 44.5363 90.8241 43.1918 90.8431C41.8473 90.8622 40.5067 90.7763 39.2504 90.5908C36.3163 90.1474 33.9 89.3049 32.0015 88.3516C28.6072 86.6224 26.5361 84.5606 24.9827 82.4989C19.5423 76.183 16.9542 69.5542 17.3312 62.901C17.4462 59.6864 18.4242 54.92 19.8625 51.8162H44.0254C44.0254 51.8162 42.5871 54.2549 36.8341 60.9723C35.9711 61.9921 34.9356 63.0119 34.3602 64.076C33.5095 65.651 33.0854 67.2558 33.0946 68.8646C33.2672 70.3056 33.4973 71.791 34.878 73.1433C35.4533 73.6311 36.1437 74.1631 37.5244 74.3627C38.675 74.54 39.8257 74.2962 40.6311 73.9858C42.2995 73.365 43.22 72.4783 44.0829 71.6358Z" fill="black"/>
<path d="M110.716 54.3451C110.716 53.5343 110.589 52.8188 110.334 52.1988C110.096 51.5628 109.667 50.9905 109.047 50.4817C108.442 49.973 107.6 49.4881 106.519 49.027C105.453 48.566 104.102 48.097 102.465 47.62C100.747 47.1113 99.1974 46.5469 97.8142 45.9268C96.431 45.2909 95.2466 44.5675 94.2609 43.7567C93.2752 42.9458 92.52 42.0158 91.9953 40.9665C91.4707 39.9172 91.2084 38.7168 91.2084 37.3654C91.2084 36.0141 91.4866 34.766 92.043 33.6213C92.5995 32.4766 93.3944 31.483 94.4278 30.6404C95.4771 29.7818 96.7252 29.1141 98.1719 28.6371C99.6187 28.1602 101.232 27.9217 103.013 27.9217C105.62 27.9217 107.83 28.4225 109.643 29.4241C111.471 30.4098 112.862 31.7056 113.816 33.3113C114.77 34.9012 115.247 36.6023 115.247 38.4148H110.668C110.668 37.1111 110.39 35.9584 109.834 34.9568C109.277 33.9393 108.434 33.1444 107.306 32.572C106.177 31.9838 104.746 31.6897 103.013 31.6897C101.375 31.6897 100.024 31.9361 98.9589 32.4289C97.8937 32.9218 97.0988 33.5895 96.5741 34.4322C96.0654 35.2748 95.811 36.2366 95.811 37.3178C95.811 38.0491 95.962 38.7168 96.2641 39.321C96.5821 39.9092 97.067 40.4577 97.7188 40.9665C98.3866 41.4752 99.2292 41.9442 100.247 42.3735C101.28 42.8027 102.512 43.2161 103.943 43.6136C105.915 44.17 107.616 44.7901 109.047 45.4737C110.477 46.1573 111.654 46.9284 112.576 47.7869C113.514 48.6296 114.206 49.5914 114.651 50.6725C115.112 51.7377 115.342 52.946 115.342 54.2974C115.342 55.7124 115.056 56.9922 114.484 58.1369C113.911 59.2816 113.093 60.2594 112.028 61.0702C110.962 61.881 109.682 62.509 108.188 62.9542C106.709 63.3834 105.056 63.5981 103.228 63.5981C101.622 63.5981 100.04 63.3755 98.4819 62.9303C96.9398 62.4852 95.5328 61.8174 94.2609 60.9271C93.0049 60.0368 91.9953 58.9398 91.2322 57.6361C90.485 56.3165 90.1114 54.7903 90.1114 53.0573H94.6901C94.6901 54.2497 94.9207 55.2752 95.3817 56.1337C95.8428 56.9763 96.4708 57.6758 97.2657 58.2323C98.0765 58.7887 98.9907 59.2021 100.008 59.4724C101.042 59.7268 102.115 59.8539 103.228 59.8539C104.833 59.8539 106.193 59.6314 107.306 59.1862C108.419 58.741 109.261 58.1051 109.834 57.2784C110.422 56.4517 110.716 55.4739 110.716 54.3451ZM127.075 58.5423L133.705 37.3178H136.615L136.042 41.5388L129.293 63.1211H126.455L127.075 58.5423ZM122.616 37.3178L128.268 58.7808L128.673 63.1211H125.692L118.204 37.3178H122.616ZM142.958 58.6139L148.348 37.3178H152.736L145.248 63.1211H142.29L142.958 58.6139ZM137.259 37.3178L143.745 58.1846L144.484 63.1211H141.67L134.731 41.4911L134.158 37.3178H137.259ZM156.098 50.5056V49.9571C156.098 48.097 156.369 46.372 156.909 44.7821C157.45 43.1764 158.229 41.7852 159.246 40.6087C160.264 39.4164 161.496 38.4942 162.943 37.8424C164.389 37.1747 166.011 36.8408 167.808 36.8408C169.62 36.8408 171.25 37.1747 172.696 37.8424C174.159 38.4942 175.399 39.4164 176.417 40.6087C177.45 41.7852 178.237 43.1764 178.778 44.7821C179.318 46.372 179.588 48.097 179.588 49.9571V50.5056C179.588 52.3657 179.318 54.0907 178.778 55.6806C178.237 57.2704 177.45 58.6616 176.417 59.8539C175.399 61.0304 174.167 61.9526 172.72 62.6203C171.289 63.2721 169.668 63.5981 167.855 63.5981C166.043 63.5981 164.413 63.2721 162.966 62.6203C161.52 61.9526 160.28 61.0304 159.246 59.8539C158.229 58.6616 157.45 57.2704 156.909 55.6806C156.369 54.0907 156.098 52.3657 156.098 50.5056ZM160.51 49.9571V50.5056C160.51 51.7934 160.661 53.0096 160.963 54.1543C161.265 55.2831 161.718 56.2847 162.323 57.1591C162.943 58.0336 163.714 58.7251 164.636 59.2339C165.558 59.7268 166.631 59.9732 167.855 59.9732C169.064 59.9732 170.121 59.7268 171.027 59.2339C171.949 58.7251 172.712 58.0336 173.316 57.1591C173.921 56.2847 174.374 55.2831 174.676 54.1543C174.994 53.0096 175.153 51.7934 175.153 50.5056V49.9571C175.153 48.6852 174.994 47.4849 174.676 46.3561C174.374 45.2114 173.913 44.2018 173.293 43.3274C172.688 42.4371 171.925 41.7375 171.003 41.2288C170.097 40.72 169.032 40.4657 167.808 40.4657C166.599 40.4657 165.534 40.72 164.612 41.2288C163.706 41.7375 162.943 42.4371 162.323 43.3274C161.718 44.2018 161.265 45.2114 160.963 46.3561C160.661 47.4849 160.51 48.6852 160.51 49.9571ZM183.953 50.5056V49.9571C183.953 48.097 184.223 46.372 184.763 44.7821C185.304 43.1764 186.083 41.7852 187.1 40.6087C188.118 39.4164 189.35 38.4942 190.797 37.8424C192.244 37.1747 193.865 36.8408 195.662 36.8408C197.474 36.8408 199.104 37.1747 200.551 37.8424C202.013 38.4942 203.253 39.4164 204.271 40.6087C205.304 41.7852 206.091 43.1764 206.632 44.7821C207.172 46.372 207.443 48.097 207.443 49.9571V50.5056C207.443 52.3657 207.172 54.0907 206.632 55.6806C206.091 57.2704 205.304 58.6616 204.271 59.8539C203.253 61.0304 202.021 61.9526 200.574 62.6203C199.144 63.2721 197.522 63.5981 195.71 63.5981C193.897 63.5981 192.267 63.2721 190.821 62.6203C189.374 61.9526 188.134 61.0304 187.1 59.8539C186.083 58.6616 185.304 57.2704 184.763 55.6806C184.223 54.0907 183.953 52.3657 183.953 50.5056ZM188.364 49.9571V50.5056C188.364 51.7934 188.515 53.0096 188.818 54.1543C189.12 55.2831 189.573 56.2847 190.177 57.1591C190.797 58.0336 191.568 58.7251 192.49 59.2339C193.412 59.7268 194.485 59.9732 195.71 59.9732C196.918 59.9732 197.975 59.7268 198.881 59.2339C199.803 58.7251 200.567 58.0336 201.171 57.1591C201.775 56.2847 202.228 55.2831 202.53 54.1543C202.848 53.0096 203.007 51.7934 203.007 50.5056V49.9571C203.007 48.6852 202.848 47.4849 202.53 46.3561C202.228 45.2114 201.767 44.2018 201.147 43.3274C200.543 42.4371 199.78 41.7375 198.857 41.2288C197.951 40.72 196.886 40.4657 195.662 40.4657C194.454 40.4657 193.388 40.72 192.466 41.2288C191.56 41.7375 190.797 42.4371 190.177 43.3274C189.573 44.2018 189.12 45.2114 188.818 46.3561C188.515 47.4849 188.364 48.6852 188.364 49.9571ZM228.763 57.1591V37.3178H233.198V63.1211H228.977L228.763 57.1591ZM229.597 51.7218L231.434 51.6741C231.434 53.3912 231.251 54.981 230.885 56.4437C230.535 57.8905 229.963 59.1465 229.168 60.2117C228.373 61.2769 227.332 62.1115 226.044 62.7157C224.756 63.3039 223.19 63.5981 221.346 63.5981C220.09 63.5981 218.937 63.4152 217.888 63.0496C216.855 62.6839 215.964 62.1195 215.217 61.3564C214.47 60.5932 213.89 59.5996 213.476 58.3754C213.079 57.1512 212.88 55.6806 212.88 53.9635V37.3178H217.292V54.0112C217.292 55.1718 217.419 56.1337 217.673 56.8968C217.944 57.644 218.301 58.2402 218.747 58.6854C219.208 59.1147 219.716 59.4167 220.273 59.5916C220.845 59.7665 221.433 59.8539 222.038 59.8539C223.914 59.8539 225.4 59.4962 226.497 58.7808C227.594 58.0495 228.381 57.0717 228.858 55.8475C229.351 54.6074 229.597 53.2322 229.597 51.7218Z" fill="black"/>
</svg>
