<svg width="237" height="94" viewBox="0 0 237 94" fill="none" xmlns="http://www.w3.org/2000/svg">
<path d="M78.699 88.1883L81.4018 90.3286L80.4522 91.2052L77.7932 89.0941L78.699 88.1883ZM81.3653 83.7543V84.4263C81.3653 85.225 81.2655 85.9408 81.0658 86.5739C80.8661 87.207 80.5788 87.7451 80.2038 88.1883C79.8289 88.6315 79.3784 88.9699 78.8524 89.2037C78.3314 89.4374 77.747 89.5543 77.0993 89.5543C76.4711 89.5543 75.894 89.4374 75.368 89.2037C74.847 88.9699 74.3941 88.6315 74.0093 88.1883C73.6295 87.7451 73.3349 87.207 73.1255 86.5739C72.916 85.9408 72.8113 85.225 72.8113 84.4263V83.7543C72.8113 82.9556 72.9136 82.2422 73.1181 81.6139C73.3276 80.9809 73.6222 80.4427 74.002 79.9996C74.3819 79.5515 74.8323 79.2107 75.3534 78.9769C75.8794 78.7431 76.4565 78.6263 77.0847 78.6263C77.7324 78.6263 78.3192 78.7431 78.8451 78.9769C79.3711 79.2107 79.8215 79.5515 80.1965 79.9996C80.5715 80.4427 80.8588 80.9809 81.0585 81.6139C81.263 82.2422 81.3653 82.9556 81.3653 83.7543ZM79.9701 84.4263V83.7397C79.9701 83.1066 79.9043 82.5465 79.7728 82.0595C79.6462 81.5726 79.4587 81.1635 79.2104 80.8323C78.962 80.5012 78.6601 80.2504 78.3046 80.0799C77.9491 79.9095 77.5424 79.8243 77.0847 79.8243C76.6513 79.8243 76.2568 79.9095 75.9013 80.0799C75.5507 80.2504 75.2487 80.5012 74.9955 80.8323C74.7423 81.1635 74.5475 81.5726 74.4111 82.0595C74.2747 82.5465 74.2066 83.1066 74.2066 83.7397V84.4263C74.2066 85.0643 74.2747 85.6292 74.4111 86.121C74.5475 86.608 74.7423 87.0195 74.9955 87.3555C75.2536 87.6867 75.5604 87.9375 75.9159 88.1079C76.2714 88.2784 76.6659 88.3636 77.0993 88.3636C77.5571 88.3636 77.9637 88.2784 78.3192 88.1079C78.6747 87.9375 78.9742 87.6867 79.2177 87.3555C79.466 87.0195 79.6535 86.608 79.7802 86.121C79.9068 85.6292 79.9701 85.0643 79.9701 84.4263ZM83.5421 78.7724H87.0631C87.8617 78.7724 88.5362 78.8941 89.0865 79.1376C89.6417 79.3811 90.0629 79.7415 90.3502 80.2187C90.6424 80.6911 90.7885 81.2731 90.7885 81.9646C90.7885 82.4516 90.6887 82.8972 90.489 83.3014C90.2942 83.7007 90.0118 84.0416 89.6417 84.324C89.2764 84.6016 88.8381 84.8086 88.3268 84.945L87.9323 85.0984H84.6233L84.6086 83.9515H87.1069C87.6134 83.9515 88.0346 83.8638 88.3706 83.6885C88.7067 83.5083 88.9599 83.2673 89.1303 82.9653C89.3008 82.6634 89.386 82.3298 89.386 81.9646C89.386 81.5555 89.3057 81.1976 89.1449 80.8908C88.9842 80.584 88.731 80.3478 88.3852 80.1822C88.0444 80.0118 87.6036 79.9265 87.0631 79.9265H84.952V89.4082H83.5421V78.7724ZM89.7586 89.4082L87.1726 84.587L88.6409 84.5797L91.2634 89.3205V89.4082H89.7586Z" fill="black"/>
<path d="M44.126 19.2099C38.488 25.2843 27.1545 39.0073 27.1545 39.0073L0 39.0073C0 39.0073 14.2676 22.0476 21.3439 14.3326C23.1273 12.426 24.7382 10.4973 26.8093 8.63503C29.1681 6.46241 31.8145 4.33414 35.3238 2.40539C36.7604 1.54008 38.765 0.836455 41.1345 0.365789C42.352 0.145182 43.6727 0.0216467 45.0172 0.0025985C46.3617 -0.0164497 47.7023 0.0693819 48.9586 0.254941C51.8927 0.698332 54.309 1.54077 56.2075 2.49406C59.6018 4.22329 61.6729 6.28505 63.2262 8.34682C68.6667 14.6627 71.2548 21.2915 70.8778 27.9447C70.7628 31.1593 69.7847 35.9257 68.3465 39.0295H44.1836C44.1836 39.0295 45.6218 36.5908 51.3749 29.8734C52.2379 28.8536 53.2734 27.8338 53.8487 26.7697C54.6994 25.1947 55.1236 23.5899 55.1144 21.9811C54.9418 20.5401 54.7117 19.0547 53.331 17.7024C52.7556 17.2146 52.0653 16.6826 50.6846 16.483C49.5339 16.3057 48.3833 16.5495 47.5779 16.8599C45.9095 17.4807 44.989 18.3675 44.126 19.2099Z" fill="black"/>
<path d="M44.0829 71.6358C49.721 65.5614 61.0545 51.8384 61.0545 51.8384H88.209C88.209 51.8384 73.9414 68.7981 66.8651 76.5131C65.0816 78.4197 63.4708 80.3484 61.3997 82.2107C59.0409 84.3833 56.3945 86.5116 52.8851 88.4403C51.4485 89.3056 49.444 90.0092 47.0745 90.4799C45.857 90.7005 44.5363 90.8241 43.1918 90.8431C41.8473 90.8622 40.5067 90.7763 39.2504 90.5908C36.3163 90.1474 33.9 89.3049 32.0015 88.3516C28.6072 86.6224 26.5361 84.5606 24.9827 82.4989C19.5423 76.183 16.9542 69.5542 17.3312 62.901C17.4462 59.6864 18.4242 54.92 19.8625 51.8162H44.0254C44.0254 51.8162 42.5871 54.2549 36.8341 60.9723C35.9711 61.9921 34.9356 63.0119 34.3602 64.076C33.5095 65.651 33.0854 67.2558 33.0946 68.8646C33.2672 70.3056 33.4973 71.791 34.878 73.1433C35.4533 73.6311 36.1437 74.1631 37.5244 74.3627C38.675 74.54 39.8257 74.2962 40.6311 73.9858C42.2995 73.365 43.22 72.4783 44.0829 71.6358Z" fill="black"/>
<path d="M110.716 54.3451C110.716 53.5343 110.589 52.8188 110.334 52.1988C110.096 51.5628 109.667 50.9905 109.047 50.4817C108.442 49.973 107.6 49.4881 106.519 49.027C105.453 48.566 104.102 48.097 102.465 47.62C100.747 47.1113 99.1974 46.5469 97.8142 45.9268C96.431 45.2909 95.2466 44.5675 94.2609 43.7567C93.2752 42.9458 92.52 42.0158 91.9953 40.9665C91.4707 39.9172 91.2084 38.7168 91.2084 37.3654C91.2084 36.0141 91.4866 34.766 92.043 33.6213C92.5995 32.4766 93.3944 31.483 94.4278 30.6404C95.4771 29.7818 96.7252 29.1141 98.1719 28.6371C99.6187 28.1602 101.232 27.9217 103.013 27.9217C105.62 27.9217 107.83 28.4225 109.643 29.4241C111.471 30.4098 112.862 31.7056 113.816 33.3113C114.77 34.9012 115.247 36.6023 115.247 38.4148H110.668C110.668 37.1111 110.39 35.9584 109.834 34.9568C109.277 33.9393 108.434 33.1444 107.306 32.572C106.177 31.9838 104.746 31.6897 103.013 31.6897C101.375 31.6897 100.024 31.9361 98.9589 32.4289C97.8937 32.9218 97.0988 33.5895 96.5741 34.4322C96.0654 35.2748 95.811 36.2366 95.811 37.3178C95.811 38.0491 95.962 38.7168 96.2641 39.321C96.5821 39.9092 97.067 40.4577 97.7188 40.9665C98.3866 41.4752 99.2292 41.9442 100.247 42.3735C101.28 42.8027 102.512 43.2161 103.943 43.6136C105.915 44.17 107.616 44.7901 109.047 45.4737C110.477 46.1573 111.654 46.9284 112.576 47.7869C113.514 48.6296 114.206 49.5914 114.651 50.6725C115.112 51.7377 115.342 52.946 115.342 54.2974C115.342 55.7124 115.056 56.9922 114.484 58.1369C113.911 59.2816 113.093 60.2594 112.028 61.0702C110.962 61.881 109.682 62.509 108.188 62.9542C106.709 63.3834 105.056 63.5981 103.228 63.5981C101.622 63.5981 100.04 63.3755 98.4819 62.9303C96.9398 62.4852 95.5328 61.8174 94.2609 60.9271C93.0049 60.0368 91.9953 58.9398 91.2322 57.6361C90.485 56.3165 90.1114 54.7903 90.1114 53.0573H94.6901C94.6901 54.2497 94.9207 55.2752 95.3817 56.1337C95.8428 56.9763 96.4708 57.6758 97.2657 58.2323C98.0765 58.7887 98.9907 59.2021 100.008 59.4724C101.042 59.7268 102.115 59.8539 103.228 59.8539C104.833 59.8539 106.193 59.6314 107.306 59.1862C108.419 58.741 109.261 58.1051 109.834 57.2784C110.422 56.4517 110.716 55.4739 110.716 54.3451ZM127.075 58.5423L133.705 37.3178H136.615L136.042 41.5388L129.293 63.1211H126.455L127.075 58.5423ZM122.616 37.3178L128.268 58.7808L128.673 63.1211H125.692L118.204 37.3178H122.616ZM142.958 58.6139L148.348 37.3178H152.736L145.248 63.1211H142.29L142.958 58.6139ZM137.259 37.3178L143.745 58.1846L144.484 63.1211H141.67L134.731 41.4911L134.158 37.3178H137.259ZM156.098 50.5056V49.9571C156.098 48.097 156.369 46.372 156.909 44.7821C157.45 43.1764 158.229 41.7852 159.246 40.6087C160.264 39.4164 161.496 38.4942 162.943 37.8424C164.389 37.1747 166.011 36.8408 167.808 36.8408C169.62 36.8408 171.25 37.1747 172.696 37.8424C174.159 38.4942 175.399 39.4164 176.417 40.6087C177.45 41.7852 178.237 43.1764 178.778 44.7821C179.318 46.372 179.588 48.097 179.588 49.9571V50.5056C179.588 52.3657 179.318 54.0907 178.778 55.6806C178.237 57.2704 177.45 58.6616 176.417 59.8539C175.399 61.0304 174.167 61.9526 172.72 62.6203C171.289 63.2721 169.668 63.5981 167.855 63.5981C166.043 63.5981 164.413 63.2721 162.966 62.6203C161.52 61.9526 160.28 61.0304 159.246 59.8539C158.229 58.6616 157.45 57.2704 156.909 55.6806C156.369 54.0907 156.098 52.3657 156.098 50.5056ZM160.51 49.9571V50.5056C160.51 51.7934 160.661 53.0096 160.963 54.1543C161.265 55.2831 161.718 56.2847 162.323 57.1591C162.943 58.0336 163.714 58.7251 164.636 59.2339C165.558 59.7268 166.631 59.9732 167.855 59.9732C169.064 59.9732 170.121 59.7268 171.027 59.2339C171.949 58.7251 172.712 58.0336 173.316 57.1591C173.921 56.2847 174.374 55.2831 174.676 54.1543C174.994 53.0096 175.153 51.7934 175.153 50.5056V49.9571C175.153 48.6852 174.994 47.4849 174.676 46.3561C174.374 45.2114 173.913 44.2018 173.293 43.3274C172.688 42.4371 171.925 41.7375 171.003 41.2288C170.097 40.72 169.032 40.4657 167.808 40.4657C166.599 40.4657 165.534 40.72 164.612 41.2288C163.706 41.7375 162.943 42.4371 162.323 43.3274C161.718 44.2018 161.265 45.2114 160.963 46.3561C160.661 47.4849 160.51 48.6852 160.51 49.9571ZM183.953 50.5056V49.9571C183.953 48.097 184.223 46.372 184.763 44.7821C185.304 43.1764 186.083 41.7852 187.1 40.6087C188.118 39.4164 189.35 38.4942 190.797 37.8424C192.244 37.1747 193.865 36.8408 195.662 36.8408C197.474 36.8408 199.104 37.1747 200.551 37.8424C202.013 38.4942 203.253 39.4164 204.271 40.6087C205.304 41.7852 206.091 43.1764 206.632 44.7821C207.172 46.372 207.443 48.097 207.443 49.9571V50.5056C207.443 52.3657 207.172 54.0907 206.632 55.6806C206.091 57.2704 205.304 58.6616 204.271 59.8539C203.253 61.0304 202.021 61.9526 200.574 62.6203C199.144 63.2721 197.522 63.5981 195.71 63.5981C193.897 63.5981 192.267 63.2721 190.821 62.6203C189.374 61.9526 188.134 61.0304 187.1 59.8539C186.083 58.6616 185.304 57.2704 184.763 55.6806C184.223 54.0907 183.953 52.3657 183.953 50.5056ZM188.364 49.9571V50.5056C188.364 51.7934 188.515 53.0096 188.818 54.1543C189.12 55.2831 189.573 56.2847 190.177 57.1591C190.797 58.0336 191.568 58.7251 192.49 59.2339C193.412 59.7268 194.485 59.9732 195.71 59.9732C196.918 59.9732 197.975 59.7268 198.881 59.2339C199.803 58.7251 200.567 58.0336 201.171 57.1591C201.775 56.2847 202.228 55.2831 202.53 54.1543C202.848 53.0096 203.007 51.7934 203.007 50.5056V49.9571C203.007 48.6852 202.848 47.4849 202.53 46.3561C202.228 45.2114 201.767 44.2018 201.147 43.3274C200.543 42.4371 199.78 41.7375 198.857 41.2288C197.951 40.72 196.886 40.4657 195.662 40.4657C194.454 40.4657 193.388 40.72 192.466 41.2288C191.56 41.7375 190.797 42.4371 190.177 43.3274C189.573 44.2018 189.12 45.2114 188.818 46.3561C188.515 47.4849 188.364 48.6852 188.364 49.9571ZM228.763 57.1591V37.3178H233.198V63.1211H228.977L228.763 57.1591ZM229.597 51.7218L231.434 51.6741C231.434 53.3912 231.251 54.981 230.885 56.4437C230.535 57.8905 229.963 59.1465 229.168 60.2117C228.373 61.2769 227.332 62.1115 226.044 62.7157C224.756 63.3039 223.19 63.5981 221.346 63.5981C220.09 63.5981 218.937 63.4152 217.888 63.0496C216.855 62.6839 215.964 62.1195 215.217 61.3564C214.47 60.5932 213.89 59.5996 213.476 58.3754C213.079 57.1512 212.88 55.6806 212.88 53.9635V37.3178H217.292V54.0112C217.292 55.1718 217.419 56.1337 217.673 56.8968C217.944 57.644 218.301 58.2402 218.747 58.6854C219.208 59.1147 219.716 59.4167 220.273 59.5916C220.845 59.7665 221.433 59.8539 222.038 59.8539C223.914 59.8539 225.4 59.4962 226.497 58.7808C227.594 58.0495 228.381 57.0717 228.858 55.8475C229.351 54.6074 229.597 53.2322 229.597 51.7218Z" fill="black"/>
</svg>
