<svg width="168" height="65" viewBox="0 0 168 65" fill="none" xmlns="http://www.w3.org/2000/svg">
<g clip-path="url(#clip0_947_251)">
<path d="M99.352 12.8777C98.8944 12.722 98.4331 12.5778 97.9682 12.4451C98.0463 12.1287 98.1182 11.816 98.182 11.5089C99.2295 6.46551 98.5447 2.40243 96.2056 1.06467C93.963 -0.217788 90.2952 1.11947 86.5911 4.3168C86.226 4.63248 85.869 4.95725 85.5205 5.29081C85.2872 5.069 85.0498 4.8515 84.8083 4.63842C80.9262 1.21974 77.0349 -0.22112 74.6984 1.12047C72.4577 2.40693 71.7942 6.22651 72.7373 11.0063C72.8311 11.4796 72.9371 11.9506 73.055 12.4186C72.5042 12.5739 71.9727 12.7391 71.4641 12.915C66.9125 14.4889 64.0059 16.9554 64.0059 19.5138C64.0059 22.1562 67.1263 24.8066 71.8669 26.4136C72.2513 26.5434 72.6388 26.6636 73.0292 26.7742C72.9024 27.2783 72.7898 27.7859 72.6916 28.2962C71.7925 32.993 72.4946 36.7223 74.7293 38.0006C77.0373 39.3207 80.9111 37.964 84.6829 34.6937C84.9888 34.4278 85.2879 34.1544 85.58 33.8737C85.9574 34.2349 86.3449 34.5856 86.742 34.9254C90.3958 38.0436 94.0043 39.3027 96.2367 38.0209C98.5425 36.697 99.292 32.6907 98.319 27.8165C98.2424 27.4347 98.1564 27.0547 98.0613 26.677C98.3333 26.597 98.6003 26.5147 98.8606 26.4291C103.789 24.8097 106.996 22.1915 106.996 19.5138C106.996 16.9461 103.995 14.4629 99.352 12.8777V12.8777ZM98.2831 24.7003C98.048 24.7774 97.8068 24.8519 97.561 24.9243C97.0169 23.216 96.2827 21.3995 95.3841 19.5227C96.2416 17.6906 96.9476 15.8973 97.4764 14.2001C97.9162 14.3263 98.3429 14.4594 98.7543 14.5998C102.733 15.9582 105.159 17.9664 105.159 19.5138C105.159 21.162 102.538 23.3018 98.2831 24.7003V24.7003ZM96.5175 28.1703C96.9477 30.3255 97.009 32.2742 96.724 33.7976C96.4681 35.1665 95.9532 36.0791 95.3165 36.4447C93.9618 37.2225 91.0645 36.2115 87.9399 33.5446C87.5705 33.2287 87.21 32.9027 86.8589 32.567C88.0703 31.253 89.2809 29.7256 90.4625 28.029C92.5408 27.8462 94.5042 27.547 96.2847 27.1388C96.3705 27.4808 96.4481 27.8247 96.5175 28.1703V28.1703ZM78.662 36.3103C77.3384 36.7738 76.2841 36.7871 75.6468 36.4227C74.2908 35.647 73.7271 32.6526 74.496 28.636C74.5874 28.1613 74.6921 27.6893 74.8099 27.2204C76.5708 27.6068 78.5199 27.8846 80.6031 28.0522C81.7927 29.7122 83.0382 31.238 84.2935 32.5741C84.0267 32.8301 83.7536 33.0796 83.4745 33.3223C81.8064 34.7683 80.1351 35.7943 78.662 36.3103V36.3103ZM72.4611 24.6901C70.3648 23.9795 68.6336 23.0559 67.4471 22.0481C66.3807 21.1426 65.8425 20.2433 65.8425 19.5138C65.8425 17.9612 68.1762 15.9809 72.0686 14.635C72.541 14.4717 73.0354 14.3177 73.5484 14.1731C74.0864 15.9086 74.7921 17.7232 75.6436 19.5581C74.781 21.4202 74.0653 23.2638 73.522 25.0198C73.1657 24.9185 72.8119 24.8086 72.4611 24.6901V24.6901ZM74.5397 10.6563C73.7318 6.56128 74.2683 3.47221 75.6186 2.6969C77.0568 1.87113 80.237 3.0485 83.589 6.00049C83.8076 6.19343 84.0226 6.39027 84.234 6.59092C82.985 7.92119 81.7509 9.43566 80.5718 11.0859C78.55 11.2717 76.6146 11.5702 74.8352 11.9701C74.7256 11.5348 74.6271 11.0968 74.5397 10.6565V10.6563ZM93.0835 15.1979C92.6632 14.4779 92.2274 13.7669 91.7762 13.0655C93.1478 13.2376 94.462 13.4659 95.6962 13.7451C95.3257 14.9229 94.8639 16.1543 94.3203 17.4167C93.923 16.669 93.5106 15.9293 93.0835 15.1979V15.1979ZM85.5214 7.89271C86.3684 8.80292 87.2168 9.81907 88.0512 10.9217C86.3585 10.8424 84.6629 10.842 82.9702 10.9207C83.8055 9.82823 84.6611 8.81342 85.5214 7.89271ZM77.9107 15.2104C77.4889 15.9359 77.0842 16.671 76.6971 17.4152C76.1624 16.1573 75.7048 14.9203 75.3311 13.7258C76.5577 13.4536 77.8657 13.2311 79.2286 13.0622C78.7724 13.7679 78.333 14.4841 77.9107 15.2102V15.2104ZM79.2677 26.095C77.8596 25.9391 76.532 25.7281 75.3058 25.4633C75.6853 24.2474 76.153 22.9841 76.6992 21.6992C77.088 22.4439 77.4943 23.1795 77.9179 23.9053C78.3535 24.6515 78.8046 25.3823 79.2677 26.095ZM85.5721 31.2632C84.7015 30.3318 83.8333 29.3014 82.9855 28.1931C83.8087 28.2251 84.6478 28.2414 85.5007 28.2414C86.377 28.2414 87.2431 28.2219 88.0957 28.1843C87.2586 29.3125 86.4134 30.3445 85.5721 31.2632ZM94.3376 21.6336C94.9123 22.9327 95.3966 24.1893 95.7811 25.3843C94.5348 25.6665 93.189 25.8937 91.771 26.0624C92.2254 25.348 92.6654 24.6246 93.0907 23.8929C93.5232 23.149 93.9389 22.3957 94.3376 21.6336V21.6336ZM91.5 22.9828C90.8488 24.1048 90.161 25.2054 89.4376 26.2831C88.1274 26.3751 86.8142 26.4208 85.5007 26.4201C84.1628 26.4201 82.8615 26.3788 81.6085 26.2982C80.8663 25.2231 80.1653 24.1205 79.5072 22.9928H79.5073C78.8523 21.8711 78.2404 20.7251 77.6731 19.5573C78.239 18.3892 78.849 17.2427 79.5018 16.1201L79.5016 16.1203C80.1542 14.9974 80.8495 13.8995 81.5861 12.829C82.8646 12.7331 84.1756 12.6831 85.5005 12.6831H85.5007C86.8317 12.6831 88.1444 12.7336 89.4225 12.8302C90.1517 13.8991 90.8426 14.9932 91.4939 16.1105C92.1489 17.2306 92.767 18.3715 93.3472 19.5315C92.7729 20.7033 92.1568 21.8545 91.5 22.9828V22.9828ZM95.2884 2.6426C96.7279 3.46605 97.2878 6.78663 96.3833 11.1412C96.3255 11.419 96.2607 11.702 96.1902 11.9889C94.4065 11.5805 92.4697 11.2769 90.442 11.0882C89.2608 9.41984 88.0368 7.90303 86.808 6.58993C87.1301 6.28205 87.4597 5.98216 87.7968 5.69054C90.9706 2.95123 93.9369 1.86963 95.2884 2.6426V2.6426ZM85.5007 15.7064C87.6208 15.7064 89.3396 17.4111 89.3396 19.5138C89.3396 21.6166 87.6208 23.3212 85.5007 23.3212C83.3806 23.3212 81.6619 21.6166 81.6619 19.5138C81.6619 17.4111 83.3806 15.7064 85.5007 15.7064V15.7064Z" fill="#00D8FF"/>
</g>
<g clip-path="url(#clip1_947_251)">
<path d="M144.826 4.88086H151.418L134.938 33.5147L118.459 4.88086H131.066L134.938 11.5206L138.729 4.88086H144.826Z" fill="#41B883"/>
<path d="M118.459 4.88086L134.938 33.5147L151.418 4.88086H144.826L134.938 22.0612L124.968 4.88086H118.459Z" fill="#41B883"/>
<path d="M124.969 4.88086L134.939 22.1442L144.826 4.88086H138.729L134.939 11.5206L131.066 4.88086H124.969Z" fill="#35495E"/>
</g>
<g clip-path="url(#clip2_947_251)">
<path d="M20.3105 9.32144L34.7472 4.24414L49.5725 9.23117L47.1721 28.0849L34.7472 34.8772L22.5166 28.1751L20.3105 9.32144Z" fill="#E23237"/>
<path d="M49.5734 9.23117L34.748 4.24414V34.8772L47.173 28.0962L49.5734 9.23117V9.23117Z" fill="#B52E31"/>
<path d="M34.7711 7.82129L25.7754 27.5776L29.1359 27.5212L30.9419 23.0644H39.0118L40.9893 27.5776L44.2012 27.634L34.7711 7.82129ZM34.794 14.151L37.8345 20.4242H32.1192L34.794 14.151Z" fill="white"/>
</g>
<g clip-path="url(#clip3_947_251)">
<path d="M0.299359 60.3885V55.2692H6.6912V54.9697H0.299359V50.2994H7.09532V50H0V60.6879H7.15516V60.3885H0.299449H0.299359ZM12.9184 52.9938L10.2689 56.4816L7.67913 52.9939H7.28992L10.0892 56.7062L7.02039 60.6878H7.37968L10.2687 56.9305L13.1727 60.6878H13.5469L10.4633 56.706L13.2775 52.9937H12.9183L12.9184 52.9938ZM14.4452 63.3225V58.5325H14.4751C14.6548 59.231 15.009 59.7923 15.5379 60.2165C16.0668 60.6406 16.7404 60.8527 17.5587 60.8527C18.0876 60.8527 18.5567 60.7454 18.9658 60.5309C19.375 60.3163 19.7168 60.0244 19.9912 59.6551C20.2656 59.2859 20.4752 58.8568 20.6199 58.3678C20.7646 57.8788 20.837 57.3649 20.837 56.8261C20.837 56.2472 20.7621 55.7133 20.6124 55.2243C20.4627 54.7353 20.2457 54.3112 19.9613 53.952C19.6769 53.5927 19.3326 53.3132 18.9284 53.1137C18.5243 52.9141 18.0677 52.8143 17.5587 52.8143C17.1695 52.8143 16.8078 52.8717 16.4735 52.9864C16.1392 53.1012 15.8423 53.2633 15.5829 53.4729C15.3219 53.6841 15.0947 53.934 14.9092 54.2139C14.7196 54.4983 14.5749 54.8101 14.4751 55.1495H14.4452V52.9938H14.1458V63.3225H14.4452V63.3225ZM17.5587 60.5681C16.6207 60.5681 15.8672 60.2463 15.2984 59.6027C14.7296 58.959 14.4452 58.0334 14.4452 56.8259C14.4452 56.3269 14.5151 55.8529 14.6548 55.4038C14.7945 54.9548 14.9965 54.5606 15.2609 54.2213C15.5254 53.882 15.8523 53.6125 16.2414 53.413C16.6306 53.2134 17.0698 53.1135 17.5587 53.1135C18.0577 53.1135 18.4943 53.2134 18.8685 53.413C19.2427 53.6125 19.5522 53.8845 19.7966 54.2288C20.0411 54.573 20.2257 54.9673 20.3505 55.4113C20.4752 55.8554 20.5376 56.3269 20.5376 56.8259C20.5376 57.275 20.4802 57.7216 20.3654 58.1656C20.2507 58.6097 20.0735 59.0089 19.834 59.3632C19.5946 59.7174 19.2877 60.0068 18.9135 60.2314C18.5392 60.4559 18.0876 60.5681 17.5587 60.5681V60.5681ZM22.4836 60.6879V56.3319C22.4836 55.9128 22.5434 55.5036 22.6633 55.1045C22.7829 54.7053 22.9676 54.3535 23.2171 54.0492C23.4666 53.7448 23.7833 53.5053 24.1676 53.3306C24.5518 53.1559 25.0084 53.0836 25.5373 53.1135V52.8142C25.0782 52.8043 24.6766 52.8541 24.3323 52.9639C23.9879 53.0736 23.6911 53.2233 23.4416 53.413C23.1921 53.6026 22.9925 53.8246 22.8429 54.0791C22.6933 54.3332 22.5823 54.6081 22.5135 54.8949H22.4836V52.9938H22.1842V60.688H22.4836V60.6879ZM25.9115 56.9007H32.3482C32.3682 56.3718 32.3158 55.8629 32.191 55.3739C32.0663 54.8849 31.8667 54.4508 31.5923 54.0716C31.3178 53.6924 30.9636 53.388 30.5294 53.1585C30.0953 52.9289 29.5789 52.8142 28.9802 52.8142C28.551 52.8142 28.1319 52.904 27.7227 53.0837C27.3136 53.2633 26.9543 53.5252 26.645 53.8695C26.3356 54.2138 26.0861 54.6354 25.8966 55.1345C25.707 55.6334 25.6121 56.2022 25.6121 56.8409C25.6121 57.4097 25.677 57.9411 25.8067 58.4351C25.9365 58.929 26.136 59.3582 26.4054 59.7224C26.675 60.0867 27.0218 60.3686 27.4458 60.5681C27.8699 60.7678 28.3814 60.8626 28.9802 60.8526C29.8583 60.8526 30.5968 60.6055 31.1955 60.1116C31.7944 59.6176 32.1486 58.9216 32.2584 58.0234H31.959C31.8293 58.8717 31.4974 59.5079 30.9636 59.932C30.4296 60.3561 29.7586 60.5681 28.9502 60.5681C28.4013 60.5681 27.9373 60.4734 27.558 60.2838C27.1789 60.0942 26.8695 59.8347 26.63 59.5054C26.3905 59.176 26.2134 58.7893 26.0986 58.3452C25.9838 57.9012 25.9214 57.4197 25.9115 56.9007ZM32.0488 56.6014H25.9116C25.9414 56.0625 26.0412 55.5785 26.2108 55.1494C26.3806 54.7202 26.6026 54.3535 26.877 54.0492C27.1514 53.7448 27.4708 53.5128 27.835 53.3531C28.1993 53.1934 28.591 53.1135 29.0101 53.1135C29.5091 53.1135 29.9481 53.2059 30.3274 53.3905C30.7065 53.5752 31.0234 53.8272 31.2779 54.1465C31.5324 54.4658 31.7245 54.8375 31.8542 55.2616C31.9839 55.6858 32.0488 56.1324 32.0488 56.6014ZM38.5604 55.2692H38.8598C38.8598 54.4109 38.6103 53.7872 38.1114 53.398C37.6123 53.0088 36.9337 52.8142 36.0755 52.8142C35.5965 52.8142 35.1923 52.8741 34.863 52.9939C34.5337 53.1135 34.2642 53.2682 34.0546 53.4578C33.8451 53.6474 33.6955 53.857 33.6056 54.0865C33.5158 54.3161 33.4708 54.5357 33.4708 54.7452C33.4708 55.1643 33.5457 55.4986 33.6955 55.7481C33.8451 55.9976 34.0796 56.1922 34.3989 56.3319C34.6185 56.4316 34.8679 56.5215 35.1474 56.6014C35.4268 56.6812 35.7512 56.766 36.1204 56.8558C36.4497 56.9358 36.774 57.0155 37.0934 57.0953C37.4127 57.1752 37.6947 57.2825 37.9391 57.4171C38.1837 57.5519 38.3832 57.724 38.5379 57.9337C38.6926 58.1432 38.7699 58.4176 38.7699 58.7569C38.7699 59.0863 38.6926 59.3657 38.5379 59.5951C38.3845 59.8235 38.1827 60.0152 37.9467 60.1566C37.7072 60.3012 37.4401 60.406 37.1458 60.4708C36.8514 60.5357 36.5645 60.5681 36.2851 60.5681C35.377 60.5681 34.6809 60.3661 34.1969 59.962C33.7129 59.5578 33.4709 58.9216 33.4709 58.0533H33.1715C33.1715 59.0214 33.4335 59.7299 33.9573 60.179C34.4813 60.6281 35.2572 60.8526 36.2851 60.8526C36.6144 60.8526 36.9462 60.8151 37.2806 60.7403C37.6148 60.6654 37.9142 60.5433 38.1787 60.3735C38.4408 60.2062 38.661 59.9809 38.8223 59.715C38.987 59.4455 39.0694 59.1162 39.0694 58.727C39.0694 58.3577 38.9969 58.0584 38.8523 57.8288C38.7076 57.5993 38.518 57.4097 38.2834 57.26C38.0489 57.1103 37.7845 56.9931 37.4901 56.9083C37.194 56.823 36.8971 56.7406 36.5994 56.6612C36.233 56.5651 35.8662 56.4703 35.4992 56.3768C35.1849 56.297 34.893 56.2022 34.6235 56.0924C34.3641 55.9826 34.157 55.8255 34.0023 55.6209C33.8476 55.4163 33.7703 55.1244 33.7703 54.7452C33.7703 54.6754 33.7902 54.5506 33.8301 54.371C33.87 54.1913 33.9649 54.0092 34.1146 53.8246C34.2642 53.64 34.4937 53.4753 34.8031 53.3306C35.1125 53.1859 35.5366 53.1135 36.0755 53.1135C36.4448 53.1135 36.7815 53.1535 37.0859 53.2333C37.3903 53.3132 37.6523 53.4404 37.8717 53.615C38.0913 53.7897 38.2609 54.0117 38.3807 54.2811C38.5005 54.5507 38.5604 54.88 38.5604 55.2692V55.2692ZM45.491 55.2692H45.7904C45.7904 54.4109 45.541 53.7872 45.042 53.398C44.543 53.0088 43.8644 52.8142 43.0061 52.8142C42.5272 52.8142 42.123 52.8741 41.7937 52.9939C41.4643 53.1135 41.1949 53.2682 40.9854 53.4578C40.7758 53.6474 40.6261 53.857 40.5362 54.0865C40.4464 54.3161 40.4016 54.5357 40.4016 54.7452C40.4016 55.1643 40.4764 55.4986 40.6262 55.7481C40.7758 55.9976 41.0103 56.1922 41.3297 56.3319C41.5492 56.4316 41.7986 56.5215 42.078 56.6014C42.3575 56.6812 42.6818 56.766 43.0511 56.8558C43.3804 56.9358 43.7048 57.0155 44.0241 57.0953C44.3435 57.1752 44.6253 57.2825 44.8699 57.4171C45.1143 57.5519 45.314 57.724 45.4686 57.9337C45.6233 58.1432 45.7006 58.4176 45.7006 58.7569C45.7006 59.0863 45.6233 59.3657 45.4686 59.5951C45.3152 59.8235 45.1134 60.0152 44.8774 60.1566C44.6378 60.3012 44.3709 60.406 44.0764 60.4708C43.7821 60.5357 43.4952 60.5681 43.2157 60.5681C42.3076 60.5681 41.6116 60.3661 41.1276 59.962C40.6435 59.5578 40.4016 58.9216 40.4016 58.0533H40.1022C40.1022 59.0214 40.3641 59.7299 40.8881 60.179C41.4119 60.6281 42.1878 60.8526 43.2157 60.8526C43.5451 60.8526 43.8769 60.8151 44.2112 60.7403C44.5454 60.6654 44.8449 60.5433 45.1094 60.3735C45.3715 60.2062 45.5918 59.9809 45.753 59.715C45.9177 59.4455 46 59.1162 46 58.727C46 58.3577 45.9277 58.0584 45.7829 57.8288C45.6383 57.5993 45.4487 57.4097 45.2141 57.26C44.9796 57.1103 44.7151 56.9931 44.4208 56.9083C44.1247 56.823 43.8278 56.7406 43.5301 56.6612C43.1637 56.5651 42.797 56.4703 42.4299 56.3768C42.1155 56.297 41.8236 56.2022 41.5542 56.0924C41.2947 55.9826 41.0876 55.8255 40.933 55.6209C40.7783 55.4163 40.7009 55.1244 40.7009 54.7452C40.7009 54.6754 40.7209 54.5506 40.7609 54.371C40.8007 54.1913 40.8956 54.0092 41.0452 53.8246C41.1949 53.64 41.4244 53.4753 41.7338 53.3306C42.0432 53.1859 42.4673 53.1135 43.0062 53.1135C43.3755 53.1135 43.7122 53.1535 44.0166 53.2333C44.321 53.3132 44.5829 53.4404 44.8025 53.615C45.022 53.7897 45.1917 54.0117 45.3114 54.2811C45.4312 54.5507 45.4911 54.88 45.4911 55.2692H45.491Z" fill="#222222"/>
</g>
<g clip-path="url(#clip4_947_251)">
<path fill-rule="evenodd" clip-rule="evenodd" d="M162.004 50.2587C161.925 50.2743 161.847 50.4465 161.847 50.5403C161.831 51.1667 161.816 52.8264 161.816 53.9536C161.816 53.985 161.862 54.0476 161.91 54.0476C162.145 54.0632 162.709 54.0788 163.195 54.0788C163.87 54.0788 164.262 53.985 164.481 53.8912C165.046 53.6092 165.312 52.9986 165.312 52.3252C165.312 50.8067 164.246 50.2273 162.662 50.2273C162.552 50.2117 162.239 50.2117 162.004 50.2587V50.2587ZM166.049 57.2573C166.049 55.7072 164.905 54.846 162.835 54.846C162.741 54.846 162.082 54.8304 161.925 54.8616C161.878 54.8774 161.816 54.9088 161.816 54.9558C161.816 56.0673 161.8 57.8367 161.847 58.5255C161.878 58.8229 162.098 59.2457 162.364 59.3709C162.647 59.5275 163.289 59.5588 163.729 59.5588C164.967 59.5588 166.049 58.8699 166.049 57.2573V57.2573ZM158.805 49.3976C158.962 49.3976 159.432 49.4445 160.639 49.4445C161.784 49.4445 162.694 49.4132 163.807 49.4132C165.171 49.4132 167.053 49.8985 167.053 51.9339C167.053 52.936 166.347 53.7346 165.422 54.126C165.375 54.1416 165.375 54.1728 165.422 54.1884C166.739 54.5174 167.9 55.3314 167.9 56.8657C167.9 58.3689 166.959 59.3239 165.594 59.919C164.763 60.279 163.729 60.4042 162.678 60.4042C161.878 60.4042 159.73 60.3104 158.538 60.3418C158.413 60.2946 158.648 59.731 158.758 59.6371C159.04 59.6214 159.259 59.6058 159.557 59.5118C159.981 59.4023 160.028 59.2769 160.091 58.6351C160.122 58.0871 160.122 56.1455 160.122 54.7678C160.122 52.8734 160.138 51.5895 160.122 50.9633C160.106 50.478 159.934 50.3213 159.589 50.2273C159.322 50.1805 158.883 50.1177 158.522 50.0709C158.444 49.9925 158.711 49.4601 158.805 49.3976ZM149.757 59.1361C150.133 59.4334 150.87 59.5586 151.529 59.5586C152.376 59.5586 153.222 59.4023 154.038 58.6662C154.869 57.9149 155.449 56.7563 155.449 54.9088C155.449 53.1394 154.775 51.6989 153.395 50.8537C152.611 50.3681 151.607 50.1648 150.447 50.1648C150.102 50.1648 149.773 50.1805 149.569 50.2743C149.522 50.3057 149.412 50.4465 149.412 50.5247C149.381 50.8379 149.381 53.249 149.381 54.6582C149.381 56.1143 149.381 58.1497 149.412 58.3845C149.412 58.6195 149.522 58.9795 149.757 59.1361H149.757ZM146.197 49.3975C146.495 49.3975 147.64 49.4445 148.189 49.4445C149.177 49.4445 149.882 49.3976 151.748 49.3976C153.316 49.3976 154.634 49.8203 155.575 50.6187C156.719 51.6051 157.315 52.9673 157.315 54.6268C157.315 56.9911 156.233 58.3533 155.151 59.1361C154.069 59.9346 152.658 60.4042 150.651 60.4042C149.585 60.4042 147.75 60.373 146.229 60.3572H146.213C146.135 60.2164 146.339 59.6684 146.464 59.6528C146.872 59.6058 146.982 59.59 147.185 59.5119C147.515 59.3866 147.577 59.2143 147.625 58.6351C147.671 57.5547 147.656 56.2552 147.656 54.7834C147.656 53.7346 147.671 51.6833 147.64 51.0257C147.593 50.4779 147.358 50.3369 146.887 50.2429C146.652 50.1961 146.339 50.1333 145.9 50.0865C145.837 49.9767 146.119 49.4915 146.197 49.3976V49.3975Z" fill="#8E714E"/>
<path fill-rule="evenodd" clip-rule="evenodd" d="M127.223 59.7459C126.831 59.6989 126.549 59.6365 126.204 59.4799C126.157 59.4485 126.079 59.2921 126.079 59.2293C126.047 58.6813 126.047 57.1156 126.047 56.0668C126.047 55.2212 125.906 54.4853 125.546 53.9687C125.122 53.3735 124.511 53.0293 123.727 53.0293C123.037 53.0293 122.111 53.4989 121.343 54.1565C121.327 54.1721 121.202 54.2819 121.218 54.1095C121.218 53.9373 121.249 53.5929 121.265 53.3579C121.281 53.1387 121.155 53.0293 121.155 53.0293C120.653 53.2797 119.242 53.6085 118.724 53.6554C118.348 53.7339 118.254 54.0939 118.646 54.2191H118.662C119.085 54.3444 119.367 54.4853 119.587 54.6263C119.744 54.7515 119.728 54.9238 119.728 55.0647C119.744 56.2388 119.744 58.0395 119.697 59.0259C119.681 59.4173 119.571 59.5581 119.289 59.6207L119.32 59.6051C119.101 59.6521 118.928 59.6989 118.662 59.7303C118.568 59.8243 118.568 60.3253 118.662 60.4349C118.834 60.4349 119.744 60.3879 120.496 60.3879C121.531 60.3879 122.065 60.4349 122.331 60.4349C122.441 60.3097 122.472 59.8399 122.409 59.7303C122.111 59.7147 121.892 59.6835 121.688 59.6207C121.406 59.5579 121.327 59.4173 121.312 59.0885C121.281 58.2585 121.281 56.505 121.281 55.3152C121.281 54.9864 121.374 54.8298 121.468 54.7358C121.829 54.4227 122.409 54.2035 122.927 54.2035C123.429 54.2035 123.758 54.3601 124.009 54.5637C124.354 54.8454 124.463 55.2526 124.511 55.55C124.589 56.2232 124.558 57.554 124.558 58.7127C124.558 59.3389 124.511 59.4955 124.276 59.5737C124.166 59.6207 123.883 59.6835 123.554 59.7145C123.444 59.8243 123.476 60.3097 123.554 60.4193C124.009 60.4193 124.542 60.3723 125.326 60.3723C126.298 60.3723 126.925 60.4193 127.176 60.4193C127.255 60.3253 127.286 59.8713 127.223 59.7459V59.7459ZM131.567 53.7653C130.736 53.7653 130.218 54.4071 130.218 55.409C130.218 56.4268 130.673 57.601 131.959 57.601C132.178 57.601 132.586 57.507 132.774 57.2878C133.072 57.0062 133.276 56.4424 133.276 55.8474C133.276 54.548 132.633 53.7651 131.567 53.7651V53.7653ZM131.457 60.6853C131.144 60.6853 130.924 60.7793 130.783 60.8577C130.124 61.2802 129.826 61.6874 129.826 62.173C129.826 62.6268 129.999 62.9868 130.375 63.3C130.83 63.6914 131.457 63.8794 132.257 63.8794C133.856 63.8794 134.562 63.0182 134.562 62.173C134.562 61.5778 134.264 61.1864 133.653 60.9673C133.213 60.7793 132.414 60.6853 131.457 60.6853V60.6853ZM131.567 64.7562C130.61 64.7562 129.92 64.5527 129.325 64.0986C128.744 63.6602 128.494 63.0026 128.494 62.5486C128.494 62.4234 128.525 62.0788 128.807 61.7658C128.98 61.5778 129.356 61.2178 130.25 60.6071C130.281 60.5915 130.297 60.5759 130.297 60.5444C130.297 60.5131 130.265 60.4818 130.234 60.4663C129.497 60.1845 129.278 59.7303 129.215 59.4799V59.4485C129.199 59.3545 129.168 59.2607 129.309 59.1667C129.419 59.0885 129.576 58.9945 129.748 58.8851C130.014 58.7283 130.297 58.5561 130.469 58.4151C130.501 58.3839 130.501 58.3526 130.501 58.3213C130.501 58.2899 130.469 58.2585 130.438 58.243C129.34 57.8829 128.792 57.0686 128.792 55.8474C128.792 55.049 129.152 54.3287 129.795 53.8747C130.234 53.5303 131.332 53.1075 132.053 53.1075H132.1C132.837 53.1231 133.245 53.2797 133.825 53.4833C134.138 53.5929 134.437 53.6397 134.844 53.6397C135.456 53.6397 135.722 53.4519 135.942 53.2329C135.958 53.2641 135.989 53.3425 136.005 53.5459C136.02 53.7495 135.958 54.0469 135.801 54.2661C135.675 54.4383 135.393 54.5637 135.111 54.5637H135.032C134.75 54.5323 134.624 54.501 134.624 54.501L134.562 54.5323C134.546 54.5637 134.562 54.5949 134.578 54.6419L134.593 54.6733C134.625 54.8142 134.687 55.2368 134.687 55.3466C134.687 56.6304 134.17 57.1938 133.621 57.6167C133.088 58.0081 132.476 58.2585 131.786 58.3213C131.771 58.3213 131.708 58.3213 131.567 58.3369C131.489 58.3369 131.379 58.3526 131.363 58.3526H131.347C131.222 58.3839 130.908 58.5405 130.908 58.8065C130.908 59.0413 131.049 59.3233 131.724 59.3703C131.865 59.3859 132.006 59.3859 132.163 59.4017C133.057 59.4641 134.17 59.5425 134.687 59.7147C135.409 59.9807 135.863 60.6227 135.863 61.39C135.863 62.5488 135.032 63.629 133.653 64.3021C132.978 64.5996 132.304 64.7562 131.567 64.7562V64.7562ZM140.505 53.8435C140.176 53.8435 139.878 53.9216 139.658 54.0782C139.047 54.454 138.733 55.2056 138.733 56.3014C138.733 58.3526 139.768 59.7931 141.242 59.7931C141.681 59.7931 142.026 59.6677 142.324 59.4173C142.779 59.0413 143.014 58.2899 143.014 57.2408C143.014 55.2056 141.994 53.8433 140.505 53.8433L140.505 53.8435ZM140.787 60.5445C138.121 60.5445 137.165 58.5875 137.165 56.7556C137.165 55.4718 137.682 54.4853 138.717 53.7807C139.454 53.3267 140.332 53.0763 141.117 53.0763C143.155 53.0763 144.582 54.5323 144.582 56.6304C144.582 58.0551 144.017 59.1823 142.935 59.8713C142.418 60.2157 141.524 60.5445 140.787 60.5445H140.787V60.5445ZM112.844 53.8433C112.515 53.8433 112.217 53.9216 111.997 54.0782C111.386 54.454 111.072 55.2056 111.072 56.3014C111.072 58.3526 112.107 59.7931 113.581 59.7931C114.02 59.7931 114.365 59.6677 114.663 59.4173C115.118 59.0413 115.353 58.2899 115.353 57.2408C115.353 55.2056 114.35 53.8433 112.844 53.8433ZM113.126 60.5445C110.461 60.5445 109.504 58.5875 109.504 56.7556C109.504 55.4718 110.022 54.4853 111.056 53.7807C111.794 53.3267 112.672 53.0763 113.456 53.0763C115.494 53.0763 116.921 54.5323 116.921 56.6304C116.921 58.0551 116.357 59.1823 115.275 59.8713C114.773 60.2157 113.879 60.5445 113.126 60.5445ZM95.2035 60.3879C95.172 60.3411 95.1406 60.2001 95.1564 60.0279C95.1564 59.9025 95.1878 59.8243 95.2035 59.7931C95.5328 59.7459 95.7052 59.6989 95.8933 59.6521C96.207 59.5737 96.3324 59.4017 96.348 59.0103C96.3953 58.0708 96.3953 56.2858 96.3795 55.049V55.0176C96.3795 54.8768 96.3795 54.7044 96.207 54.5792C95.956 54.4227 95.6582 54.2819 95.2662 54.172C95.1251 54.1253 95.031 54.0469 95.0466 53.9531C95.0466 53.8591 95.1408 53.7495 95.3447 53.7181C95.8621 53.6711 97.2104 53.3425 97.7436 53.1075C97.7751 53.1387 97.8221 53.2329 97.8221 53.3581L97.8065 53.5301C97.7907 53.7025 97.7751 53.9061 97.7751 54.1095C97.7751 54.1721 97.8379 54.2191 97.9005 54.2191C97.9319 54.2191 97.9633 54.2035 97.9946 54.1878C98.9981 53.4049 99.9076 53.1231 100.378 53.1231C101.146 53.1231 101.742 53.4833 102.197 54.2348C102.228 54.2819 102.26 54.2975 102.307 54.2975C102.338 54.2975 102.385 54.2819 102.401 54.2505C103.326 53.5459 104.251 53.1231 104.863 53.1231C106.321 53.1231 107.183 54.2035 107.183 56.0354C107.183 56.552 107.183 57.2252 107.168 57.836C107.168 58.3839 107.152 58.8849 107.152 59.2451C107.152 59.3231 107.262 59.5737 107.434 59.6207C107.654 59.7303 107.952 59.7773 108.344 59.8399H108.359C108.391 59.9495 108.328 60.3565 108.266 60.4349C108.171 60.4349 108.03 60.4349 107.874 60.4193C107.477 60.3986 107.079 60.3882 106.682 60.3879C105.71 60.3879 105.208 60.4035 104.721 60.4349C104.69 60.3097 104.675 59.9339 104.721 59.8399C105.004 59.7931 105.145 59.7459 105.318 59.6991C105.631 59.6051 105.71 59.4641 105.725 59.0571C105.725 58.7597 105.788 56.2232 105.694 55.6126C105.6 54.9864 105.129 54.2505 104.094 54.2505C103.702 54.2505 103.091 54.4071 102.495 54.861C102.464 54.8924 102.432 54.9706 102.432 55.0176V55.0334C102.495 55.362 102.495 55.738 102.495 56.3172V57.3348C102.495 58.0395 102.479 58.6971 102.495 59.1979C102.495 59.5425 102.699 59.6207 102.871 59.6835C102.965 59.6989 103.028 59.7147 103.107 59.7303C103.248 59.7617 103.389 59.7931 103.608 59.8399C103.64 59.9027 103.64 60.1061 103.593 60.2783C103.577 60.3723 103.545 60.4191 103.53 60.4349C102.997 60.4193 102.448 60.4035 101.648 60.4035C101.413 60.4035 101.005 60.4193 100.66 60.4193C100.378 60.4193 100.111 60.4349 99.9548 60.4349C99.939 60.4035 99.9076 60.2941 99.9076 60.1217C99.9076 59.9809 99.939 59.8713 99.9704 59.8399C100.049 59.8243 100.111 59.8087 100.19 59.8087C100.378 59.7773 100.535 59.7459 100.692 59.7147C100.958 59.6365 101.052 59.4955 101.068 59.1511C101.115 58.3683 101.162 56.1294 101.052 55.5656C100.864 54.6576 100.347 54.2035 99.5156 54.2035C99.0296 54.2035 98.4179 54.4384 97.9163 54.8143C97.8378 54.8768 97.7751 55.0332 97.7751 55.1742V56.098C97.7751 57.2252 97.7751 58.6345 97.7907 59.2451C97.8065 59.4327 97.869 59.6521 98.2298 59.7303C98.3083 59.7459 98.4337 59.7773 98.5905 59.7931L98.8726 59.8399C98.9042 59.9339 98.8884 60.3097 98.8257 60.4349C98.6688 60.4349 98.4807 60.4193 98.261 60.4193C97.8537 60.3991 97.4459 60.3886 97.0381 60.3879C96.4893 60.3879 96.0972 60.4035 95.7836 60.4193C95.564 60.3879 95.3916 60.3879 95.2035 60.3879V60.3879Z" fill="#442D22"/>
<path fill-rule="evenodd" clip-rule="evenodd" d="M86.9553 64.1461L86.3125 63.9267C86.3125 63.9267 86.391 60.6546 85.2148 60.4198C84.4309 59.5116 85.3405 21.904 88.1629 60.2944C88.1629 60.2944 87.1906 60.7797 87.0182 61.6097C86.8299 62.4239 86.9553 64.1461 86.9553 64.1461V64.1461Z" fill="white"/>
<path fill-rule="evenodd" clip-rule="evenodd" d="M86.9553 64.1461L86.3125 63.9267C86.3125 63.9267 86.391 60.6546 85.2148 60.4198C84.4309 59.5116 85.3405 21.904 88.1629 60.2944C88.1629 60.2944 87.1906 60.7797 87.0182 61.6097C86.8299 62.4239 86.9553 64.1461 86.9553 64.1461V64.1461Z" fill="#A6A385"/>
<path fill-rule="evenodd" clip-rule="evenodd" d="M87.3024 60.9837C87.3024 60.9837 92.9319 57.2886 91.6145 49.601C90.3445 44.0118 87.3494 42.1799 87.0201 41.4753C86.6596 40.9743 86.3145 40.0977 86.3145 40.0977L86.5498 55.6446C86.5498 55.6604 86.0636 60.4043 87.3025 60.9839" fill="white"/>
<path fill-rule="evenodd" clip-rule="evenodd" d="M87.3024 60.9837C87.3024 60.9837 92.9319 57.2886 91.6145 49.601C90.3445 44.0118 87.3494 42.1799 87.0201 41.4753C86.6596 40.9743 86.3145 40.0977 86.3145 40.0977L86.5498 55.6446C86.5498 55.6604 86.0636 60.4043 87.3025 60.9839" fill="#499D4A"/>
<path fill-rule="evenodd" clip-rule="evenodd" d="M85.9843 61.1874C85.9843 61.1874 80.6998 57.5863 81.0134 51.2455C81.3113 44.9045 85.0433 41.7888 85.7646 41.2252C86.2351 40.7242 86.2508 40.5362 86.2822 40.0352C86.6115 40.7398 86.5488 50.5723 86.5957 51.7307C86.7367 56.1929 86.3449 60.3422 85.9843 61.1874Z" fill="white"/>
<path fill-rule="evenodd" clip-rule="evenodd" d="M85.9843 61.1874C85.9843 61.1874 80.6998 57.5863 81.0134 51.2455C81.3113 44.9045 85.0433 41.7888 85.7646 41.2252C86.2351 40.7242 86.2508 40.5362 86.2822 40.0352C86.6115 40.7398 86.5488 50.5723 86.5957 51.7307C86.7367 56.1929 86.3449 60.3422 85.9843 61.1874Z" fill="#58AA50"/>
</g>
<defs>
<clipPath id="clip0_947_251">
<rect width="42.9897" height="37.9742" fill="white" transform="translate(64.0059 0.582031)"/>
</clipPath>
<clipPath id="clip1_947_251">
<rect width="32.9588" height="28.6598" fill="white" transform="translate(118.459 4.88086)"/>
</clipPath>
<clipPath id="clip2_947_251">
<rect width="29.3763" height="30.8093" fill="white" transform="translate(20.3008 4.16504)"/>
</clipPath>
<clipPath id="clip3_947_251">
<rect width="46" height="13.3867" fill="white" transform="translate(0 50)"/>
</clipPath>
<clipPath id="clip4_947_251">
<rect width="87" height="24.7708" fill="white" transform="translate(81 40)"/>
</clipPath>
</defs>
</svg>
